<svg width="15" height="15" viewBox="0 0 15 15" fill="none" xmlns="http://www.w3.org/2000/svg">
<path opacity="0.5" d="M13.75 6.15832H1.25V11.7008C1.25 12.1908 1.44754 12.6607 1.79917 13.0072C2.15081 13.3537 2.62772 13.5483 3.125 13.5483H11.875C12.3723 13.5483 12.8492 13.3537 13.2008 13.0072C13.5525 12.6607 13.75 12.1908 13.75 11.7008V6.15832ZM4.375 4.92665C4.20924 4.92665 4.05027 4.86177 3.93306 4.74628C3.81585 4.63079 3.75 4.47415 3.75 4.31082V1.84749C3.75 1.68416 3.81585 1.52752 3.93306 1.41203C4.05027 1.29654 4.20924 1.23166 4.375 1.23166C4.54076 1.23166 4.69973 1.29654 4.81694 1.41203C4.93415 1.52752 5 1.68416 5 1.84749V4.31082C5 4.47415 4.93415 4.63079 4.81694 4.74628C4.69973 4.86177 4.54076 4.92665 4.375 4.92665ZM10.625 4.92665C10.4592 4.92665 10.3003 4.86177 10.1831 4.74628C10.0658 4.63079 10 4.47415 10 4.31082V1.84749C10 1.68416 10.0658 1.52752 10.1831 1.41203C10.3003 1.29654 10.4592 1.23166 10.625 1.23166C10.7908 1.23166 10.9497 1.29654 11.0669 1.41203C11.1842 1.52752 11.25 1.68416 11.25 1.84749V4.31082C11.25 4.47415 11.1842 4.63079 11.0669 4.74628C10.9497 4.86177 10.7908 4.92665 10.625 4.92665Z" fill="#85B6FF"/>
<path d="M11.875 2.46333H11.25V4.31083C11.25 4.47416 11.1842 4.6308 11.0669 4.74629C10.9497 4.86178 10.7908 4.92666 10.625 4.92666C10.4592 4.92666 10.3003 4.86178 10.1831 4.74629C10.0658 4.6308 10 4.47416 10 4.31083V2.46333H5V4.31083C5 4.47416 4.93415 4.6308 4.81694 4.74629C4.69973 4.86178 4.54076 4.92666 4.375 4.92666C4.20924 4.92666 4.05027 4.86178 3.93306 4.74629C3.81585 4.6308 3.75 4.47416 3.75 4.31083V2.46333H3.125C2.62772 2.46333 2.15081 2.65798 1.79917 3.00445C1.44754 3.35093 1.25 3.82084 1.25 4.31083V6.15833H13.75V4.31083C13.75 3.82084 13.5525 3.35093 13.2008 3.00445C12.8492 2.65798 12.3723 2.46333 11.875 2.46333Z" fill="#85B6FF"/>
</svg>
