<svg width="16" height="16" viewBox="0 0 16 16" fill="none" xmlns="http://www.w3.org/2000/svg">
<path d="M14.1339 7.23007H11.4748C11.2175 7.23007 11.009 7.01911 11.009 6.7587V5.22313C11.009 4.6973 10.5877 4.271 10.0686 4.271C9.80874 4.271 9.57364 4.37741 9.40351 4.54956C9.23337 4.72234 9.1282 4.96022 9.1282 5.22313V6.41127C9.1282 6.9008 8.8201 7.33649 8.36165 7.49424L7.44849 7.80912C7.4522 7.83729 7.45405 7.86608 7.45405 7.8955V12.2011C7.45405 12.2142 7.45344 12.2268 7.45344 12.2393L7.65079 12.29C8.60727 12.536 9.58973 12.6624 10.5765 12.6687C10.5846 12.6687 10.592 12.6693 10.6 12.6693H12.8947C13.2634 12.6693 13.5623 12.367 13.5623 11.9939V11.9851C13.5623 11.612 13.2634 11.3097 12.8947 11.3097H13.3513C13.72 11.3097 14.0188 11.0073 14.0188 10.6342V10.6255C14.0188 10.2524 13.72 9.95002 13.3513 9.95002H13.8079C14.1766 9.95002 14.4754 9.64766 14.4754 9.27457V9.2658C14.4754 8.89271 14.1766 8.59036 13.8079 8.59036H13.0481L13.0488 8.58973H14.1339C14.5027 8.58973 14.8015 8.28738 14.8015 7.91428V7.90552C14.8015 7.53243 14.5027 7.23007 14.1339 7.23007Z" fill="#FCE8CB"/>
<path d="M14.1339 7.13617H11.4749C11.2692 7.13617 11.1018 6.96684 11.1018 6.75869V5.22313C11.1018 4.64634 10.6384 4.17709 10.0686 4.17709C9.79251 4.17709 9.53303 4.28577 9.33778 4.48333C9.14277 4.68133 9.03537 4.94406 9.03537 5.22313V6.41127C9.03537 6.86104 8.75263 7.26055 8.33175 7.40535L7.41858 7.72022C7.37669 7.73468 7.35071 7.77706 7.35652 7.82144C7.35968 7.84561 7.36129 7.87052 7.36129 7.8955V12.2011L7.36067 12.2393C7.36067 12.2822 7.3895 12.3197 7.43064 12.3303L7.628 12.3809C8.58794 12.6279 9.5798 12.7563 10.5766 12.7625L10.5846 12.7628C10.5897 12.763 10.5948 12.7632 10.6001 12.7632H12.8948C13.314 12.7632 13.6552 12.4181 13.6552 11.9938V11.9851C13.6552 11.7525 13.5526 11.5437 13.3909 11.4024C13.7919 11.3816 14.1118 11.0449 14.1118 10.6342V10.6254C14.1118 10.3928 14.0093 10.184 13.8476 10.0428C14.2485 10.0219 14.5684 9.68528 14.5684 9.2745V9.26574C14.5684 9.02473 14.4583 8.80926 14.2863 8.6681C14.6329 8.59655 14.8944 8.28574 14.8944 7.91428V7.90552C14.8942 7.48128 14.5531 7.13617 14.1339 7.13617ZM14.7086 7.91428C14.7086 8.23498 14.4508 8.49583 14.1339 8.49583H13.0487C13.0242 8.49583 12.9999 8.50634 12.9825 8.52393C12.956 8.55079 12.948 8.59117 12.9624 8.62629C12.9768 8.6614 13.0106 8.68425 13.0482 8.68425H13.8079C14.1248 8.68425 14.3827 8.9451 14.3827 9.2658V9.27456C14.3827 9.5952 14.1248 9.85611 13.8079 9.85611H13.3513C13.3001 9.85611 13.2585 9.89812 13.2585 9.95001C13.2585 10.0019 13.3001 10.0439 13.3513 10.0439C13.6682 10.0439 13.9261 10.3048 13.9261 10.6255V10.6342C13.9261 10.9549 13.6682 11.2158 13.3513 11.2158H12.8947C12.8435 11.2158 12.8019 11.2578 12.8019 11.3097C12.8019 11.3616 12.8435 11.4036 12.8947 11.4036C13.2116 11.4036 13.4694 11.6644 13.4694 11.9851V11.9939C13.4694 12.3146 13.2116 12.5754 12.8947 12.5754H10.6L10.592 12.5752C10.5869 12.575 10.5819 12.5748 10.5772 12.5748H10.5771C9.59589 12.5686 8.61906 12.4422 7.6736 12.199L7.54683 12.1664V7.8955C7.54683 7.88849 7.54677 7.88148 7.54658 7.87453L8.39157 7.58319C8.88769 7.41248 9.22097 6.94155 9.22097 6.41133V5.22319C9.22097 4.99414 9.30913 4.77849 9.46912 4.61604C9.62917 4.45416 9.842 4.36495 10.0686 4.36495C10.536 4.36495 10.9161 4.74994 10.9161 5.22319V6.75876C10.9161 7.07044 11.1668 7.32403 11.4748 7.32403H14.1338C14.4507 7.32403 14.7086 7.58488 14.7086 7.90558V7.91428H14.7086Z" fill="#3A312A"/>
<path d="M7.0095 3.70505C6.94924 4.42895 6.20374 4.54319 6.20374 4.54319C6.84382 4.57368 7.00338 5.42328 7.00338 5.42328C7.01705 4.8175 7.82752 4.53424 7.82752 4.53424C7.22035 4.49756 7.0095 3.70505 7.0095 3.70505Z" fill="#D7E057"/>
<path d="M7.83311 4.44054C7.3008 4.40836 7.10109 3.68784 7.09918 3.68052C7.08736 3.63651 7.04585 3.6074 7.00124 3.61153C6.95639 3.61567 6.92094 3.65172 6.91716 3.69711C6.86396 4.33656 6.21719 4.44605 6.18997 4.45037C6.14276 4.45757 6.10874 4.49982 6.11121 4.54808C6.11369 4.59629 6.15186 4.63472 6.1995 4.63704C6.75804 4.66364 6.91091 5.43318 6.9124 5.44094C6.92087 5.48545 6.95936 5.51712 7.00347 5.51712C7.00607 5.51712 7.00866 5.51706 7.01132 5.51681C7.05859 5.5128 7.09522 5.47343 7.09633 5.42542C7.10833 4.89282 7.85056 4.62558 7.85811 4.62295C7.89987 4.60824 7.92567 4.56574 7.91961 4.52142C7.91342 4.4771 7.87729 4.44323 7.83311 4.44054ZM6.99382 5.08819C6.90986 4.89226 6.76435 4.65582 6.52443 4.5325C6.70576 4.44455 6.92094 4.28755 7.03187 4.01461C7.12782 4.20686 7.29171 4.4453 7.54747 4.5606C7.36143 4.66333 7.11922 4.83642 6.99382 5.08819Z" fill="#3A312A"/>
<path d="M5.66722 4.76801C5.62459 5.28001 5.09729 5.36088 5.09729 5.36088C5.55004 5.38242 5.66289 5.98337 5.66289 5.98337C5.67254 5.55488 6.2458 5.35456 6.2458 5.35456C5.81638 5.32852 5.66722 4.76801 5.66722 4.76801Z" fill="#D7E057"/>
<path d="M6.25134 5.26086C5.89455 5.23926 5.75807 4.74842 5.75677 4.74348C5.74502 4.69953 5.70406 4.67055 5.6589 4.67449C5.61398 4.67856 5.57853 4.71468 5.57475 4.76013C5.53893 5.19025 5.10171 5.26512 5.0834 5.26806C5.0362 5.27526 5.00217 5.31751 5.00464 5.36578C5.00712 5.41398 5.04529 5.45241 5.09293 5.45473C5.46636 5.47251 5.5708 5.99584 5.57172 6.00097C5.58008 6.04561 5.61868 6.07734 5.66279 6.07734C5.66539 6.07734 5.66793 6.07728 5.67053 6.07703C5.71786 6.07303 5.75454 6.03359 5.75566 5.98557C5.7637 5.62819 6.27108 5.44509 6.27615 5.44334C6.31797 5.42869 6.34383 5.38618 6.33777 5.3418C6.33171 5.29742 6.29551 5.26355 6.25134 5.26086ZM5.65834 5.68622C5.60117 5.56822 5.51357 5.43914 5.38321 5.35576C5.49804 5.29053 5.61194 5.19112 5.68457 5.04796C5.74996 5.16527 5.84883 5.29548 5.99026 5.37498C5.8758 5.44384 5.74347 5.54644 5.65834 5.68622Z" fill="#3A312A"/>
<path d="M5.66722 3.09912C5.62459 3.61112 5.09729 3.69194 5.09729 3.69194C5.55004 3.71347 5.66289 4.31443 5.66289 4.31443C5.67254 3.88593 6.2458 3.68562 6.2458 3.68562C5.81638 3.65964 5.66722 3.09912 5.66722 3.09912Z" fill="#D7E057"/>
<path d="M6.25122 3.59205C5.89449 3.57045 5.75801 3.07967 5.75665 3.07472C5.7449 3.03078 5.70394 3.00173 5.65878 3.00574C5.61386 3.00981 5.57841 3.04593 5.57464 3.09138C5.53882 3.5215 5.1016 3.59637 5.08328 3.59931C5.03608 3.60651 5.00199 3.64876 5.00453 3.69702C5.007 3.74523 5.04517 3.78366 5.09287 3.78598C5.46625 3.80376 5.57068 4.32703 5.57167 4.33216C5.58002 4.37679 5.61863 4.40853 5.66274 4.40853C5.66534 4.40853 5.66787 4.40847 5.67047 4.40822C5.7178 4.40427 5.75449 4.36477 5.7556 4.31676C5.76364 3.95938 6.27108 3.77628 6.2761 3.77452C6.31798 3.75987 6.34378 3.71737 6.33772 3.67299C6.33165 3.6286 6.29546 3.59474 6.25122 3.59205ZM5.65828 4.01741C5.60112 3.89935 5.51351 3.77033 5.38316 3.68688C5.49792 3.62172 5.61188 3.52225 5.68445 3.37908C5.74985 3.49639 5.84865 3.62666 5.99014 3.7061C5.87575 3.77502 5.74341 3.87769 5.65828 4.01741Z" fill="#3A312A"/>
<path d="M5.13987 7.18481H0.987183V12.9115H5.13987V7.18481Z" fill="#F16C7A"/>
<path d="M5.13996 7.09091H3.17529C3.124 7.09091 3.08249 7.13292 3.08249 7.18481C3.08249 7.23671 3.124 7.27871 3.17529 7.27871H5.04716V12.8176H1.08001V7.27871H2.26082C2.31211 7.27871 2.35362 7.23671 2.35362 7.18481C2.35362 7.13292 2.31211 7.09091 2.26082 7.09091H0.987211C0.935922 7.09091 0.894409 7.13292 0.894409 7.18481V12.9115C0.894409 12.9634 0.935922 13.0054 0.987211 13.0054H5.13996C5.19125 13.0054 5.23276 12.9634 5.23276 12.9115V7.18481C5.23276 7.13298 5.19125 7.09091 5.13996 7.09091Z" fill="#3A312A"/>
<path d="M6.7521 7.18481H5.14001V12.9115H6.7521C7.13995 12.9115 7.45443 12.5933 7.45443 12.2008V7.89538C7.45443 7.50295 7.13995 7.18481 6.7521 7.18481Z" fill="#8AC6DD"/>
<path d="M6.75201 7.09091H5.13992C5.08863 7.09091 5.04712 7.13292 5.04712 7.18481V12.9115C5.04712 12.9634 5.08863 13.0054 5.13992 13.0054H6.75201C7.1904 13.0054 7.54713 12.6445 7.54713 12.2008V7.89538C7.54713 7.4518 7.1904 7.09091 6.75201 7.09091ZM7.36153 12.2008C7.36153 12.5409 7.08814 12.8176 6.75201 12.8176H5.23272V7.27871H6.75201C7.08814 7.27871 7.36153 7.55534 7.36153 7.89544V12.2008V12.2008Z" fill="#3A312A"/>
<path d="M6.82536 11.7682C6.8495 11.4732 6.63268 11.2142 6.34109 11.1898C6.0495 11.1654 5.79355 11.3847 5.76941 11.6798C5.74528 11.9748 5.96209 12.2338 6.25368 12.2582C6.54527 12.2826 6.80122 12.0633 6.82536 11.7682Z" fill="#87796F"/>
<path d="M6.29714 11.0939C5.95383 11.0939 5.67456 11.3765 5.67456 11.7238C5.67456 12.0712 5.95383 12.3538 6.29714 12.3538C6.64044 12.3538 6.91971 12.0712 6.91971 11.7238C6.91971 11.3765 6.64044 11.0939 6.29714 11.0939ZM6.29714 12.1659C6.05622 12.1659 5.86016 11.9676 5.86016 11.7238C5.86016 11.48 6.05622 11.2816 6.29714 11.2816C6.53811 11.2816 6.73411 11.48 6.73411 11.7238C6.73411 11.9676 6.53811 12.1659 6.29714 12.1659Z" fill="#3A312A"/>
<path d="M6.75239 7.27853H6.0304C6.36634 7.27853 6.63979 7.55522 6.63979 7.89514V11.1979C6.80869 11.3106 6.92005 11.504 6.92005 11.7237C6.92005 11.9441 6.80745 12.1381 6.63794 12.2508C6.61257 12.5676 6.34963 12.8173 6.0304 12.8173H6.75239C7.08834 12.8173 7.36179 12.5406 7.36179 12.2007V7.89514C7.36179 7.55522 7.08834 7.27853 6.75239 7.27853Z" fill="#68A8BC"/>
</svg>
