<svg width="10" height="10" viewBox="0 0 10 10" fill="none" xmlns="http://www.w3.org/2000/svg">
<g clip-path="url(#clip0_40_61)">
<path d="M9.53125 3.26562C8.5625 2.39062 7.59375 1.5 6.625 0.625C5.20312 2.78125 2.79688 4.70312 0.515625 6.09375C0.453125 6.39062 0.390625 6.67188 0.3125 6.95312C1.3125 7.85938 2.3125 8.78125 3.3125 9.6875C5.67188 8.39062 8.17188 6.54688 9.6875 4.45312C9.64062 4.0625 9.57812 3.67188 9.53125 3.26562Z" fill="#699635"/>
<path d="M3.5 8.53125C2.51562 7.625 1.53125 6.71875 0.546875 5.82812C3 4.4375 5.0625 2.54688 6.57812 0.3125C7.5625 1.21875 8.54688 2.10937 9.53125 3.01562C8.01562 5.25 5.95312 7.14062 3.5 8.53125Z" fill="#83BF4F"/>
<path d="M3.25 7.9375C2.59375 7.34375 1.9375 6.73437 1.28125 6.14062C1.32812 6.10937 1.35938 6.09375 1.40625 6.0625C1.53125 5.98437 1.5625 5.84375 1.45313 5.73438L1.35938 5.64062C3.34375 4.42187 5.0625 2.85938 6.40625 1.04687L6.5 1.14063C6.60937 1.23438 6.76562 1.21875 6.85938 1.10937C6.89062 1.07812 6.90625 1.03125 6.9375 1C7.59375 1.59375 8.25 2.20312 8.90625 2.79688C8.875 2.82812 8.85938 2.875 8.82812 2.90625C8.73438 3.03125 8.75 3.20313 8.85938 3.3125L8.95312 3.40625C7.60937 5.20312 5.89062 6.76562 3.90625 7.98437L3.8125 7.89062C3.70313 7.79687 3.51562 7.78125 3.375 7.85937C3.32812 7.89062 3.29688 7.90625 3.25 7.9375ZM1.70312 6.15625C2.23438 6.64062 2.76563 7.125 3.3125 7.625C3.51563 7.5625 3.75 7.57812 3.9375 7.67187C5.75 6.51562 7.32812 5.07812 8.59375 3.40625C8.48438 3.23438 8.46875 3.01563 8.54688 2.82813C8.01562 2.34375 7.48438 1.85937 6.9375 1.35937C6.79688 1.48437 6.59375 1.5 6.42187 1.40625C5.15625 3.09375 3.57812 4.53125 1.76563 5.6875C1.85938 5.84375 1.84375 6.03125 1.70312 6.15625Z" fill="#699635"/>
<path d="M3.125 5.82812C3.29688 5.76562 3.48438 5.78125 3.60938 5.89063C3.53125 5.95313 3.4375 6.01563 3.35938 6.07813C3.32813 6.04688 3.25 6.04688 3.21875 6.07813C3.17188 6.10938 3.15625 6.15625 3.20313 6.1875C3.23438 6.21875 3.3125 6.21875 3.35938 6.1875C3.54688 6.0625 3.8125 6.04687 3.95312 6.1875C4.0625 6.29687 4.07812 6.45312 3.96875 6.57812C4 6.60938 4.03125 6.625 4.0625 6.65625C3.98438 6.70312 3.90625 6.76562 3.82813 6.8125C3.79688 6.78125 3.76563 6.75 3.73438 6.73438C3.5625 6.78125 3.375 6.76562 3.26563 6.65625C3.35938 6.59375 3.4375 6.54688 3.53125 6.48438C3.5625 6.51562 3.64063 6.51562 3.6875 6.48438C3.73438 6.45312 3.73438 6.40625 3.70313 6.375C3.67188 6.34375 3.60938 6.34375 3.5625 6.375C3.45312 6.45312 3.3125 6.48438 3.1875 6.46875C3.09375 6.45313 3.01563 6.42188 2.95313 6.375C2.84375 6.26562 2.84375 6.125 2.9375 6C2.90625 5.98438 2.89062 5.95313 2.85938 5.92188C2.9375 5.875 3.01562 5.8125 3.09375 5.76563C3.07812 5.78125 3.10938 5.79688 3.125 5.82812ZM6.75 2.48438C6.89062 2.39062 7.0625 2.39063 7.17188 2.5L6.98438 2.73438C6.95312 2.70313 6.89063 2.70313 6.85938 2.75C6.82813 2.79688 6.82813 2.85938 6.85938 2.89063C6.89063 2.92188 6.95312 2.92188 6.98438 2.875C7.125 2.70312 7.35938 2.67188 7.5 2.79688C7.60938 2.90625 7.64062 3.07813 7.57812 3.23438C7.60938 3.26563 7.64062 3.28125 7.67188 3.3125C7.60938 3.39063 7.5625 3.45313 7.5 3.53125C7.46875 3.5 7.4375 3.46875 7.40625 3.45313C7.26563 3.53125 7.10938 3.53125 7 3.42188C7.0625 3.34375 7.14062 3.26562 7.20312 3.1875C7.23438 3.21875 7.29688 3.21875 7.32813 3.17187C7.35938 3.125 7.35938 3.0625 7.32813 3.03125C7.29688 3 7.23438 3 7.20312 3.04688C7.125 3.14063 7 3.20313 6.89062 3.20313C6.8125 3.20313 6.73438 3.17188 6.67188 3.125C6.5625 3.01563 6.53125 2.85937 6.59375 2.70312C6.5625 2.6875 6.54688 2.65625 6.51563 2.625C6.57813 2.5625 6.64062 2.48438 6.6875 2.40625C6.6875 2.4375 6.71875 2.45312 6.75 2.48438ZM6.28125 5.54688C5.78125 6 4.9375 5.98438 4.45313 5.54688C3.96875 5.09375 4 4.39063 4.5 3.9375C5 3.48438 5.78125 3.4375 6.26562 3.89062C6.76562 4.32812 6.78125 5.09375 6.28125 5.54688Z" fill="#699635"/>
<path d="M3.40625 3.82813L6.35938 6.53125C6.70313 6.25 7.01563 5.95312 7.32813 5.64062L4.39063 2.9375C4.07813 3.23438 3.75 3.53125 3.40625 3.82813Z" fill="#FFDD7D"/>
<path d="M6.375 7.71875C6.70312 7.46875 7.03125 7.20313 7.34375 6.9375V5.625C7.03125 5.9375 6.70312 6.23438 6.375 6.51563V7.71875Z" fill="#DBB471"/>
<path d="M1.89062 3.85937C2.0625 3.79687 2.20312 3.70312 2.34375 3.59375C2.48437 3.48437 2.60938 3.375 2.75 3.25C2.89062 3.14062 3.03125 3.01562 3.1875 2.9375C3.34375 2.84375 3.54687 2.79687 3.71875 2.82812C3.54687 2.85937 3.39062 2.9375 3.25 3.04687C3.10937 3.14062 2.98438 3.26562 2.84375 3.375C2.70313 3.48437 2.5625 3.60937 2.40625 3.70312C2.25 3.79687 2.0625 3.85937 1.89062 3.85937Z" fill="#8D9998"/>
<path d="M6.21875 5.17187C6.21875 5.17187 6.98438 5.39062 8.76563 4.92187C10.5469 4.45312 9.70313 9.57812 6.45313 9.57812C6.09375 9.57812 6.07813 9.125 7.07813 8.3125C7.07813 8.3125 5.67188 8.64062 6.28125 7.59375C6.28125 7.59375 5.28125 7.76562 5.73438 6.96875C5.73438 6.96875 5.9375 6.375 5.75 5.70312C5.76563 5.70312 5.875 5.35937 6.21875 5.17187Z" fill="#E8E8E8"/>
<path d="M9.60937 5.42188C9.64062 6.79688 8.54687 9.07812 6.37499 9.07812H6.34374C6.14062 9.40625 6.23437 9.59375 6.45312 9.59375C8.92187 9.57812 9.99999 6.64062 9.60937 5.42188Z" fill="#D1D1D1"/>
<path d="M8.48438 6.17188C8.01563 7.85938 6.14063 8 6.14063 8C6.0625 8.35938 6.21875 8.51562 6.42188 8.51562C7.10938 8.53125 8.39063 7.39062 8.48438 6.17188ZM7.17188 6.17188C6.0625 7.73438 5.67188 7.15625 5.67188 7.15625C5.39063 7.78125 6.125 7.78125 6.25 7.64063C6.60938 7.25 7.1875 6.4375 7.17188 6.17188Z" fill="#D1D1D1"/>
<path d="M6.32813 9.125C6.51563 8.875 6.75 8.67188 6.98438 8.46875C7.21875 8.26563 7.45313 8.0625 7.6875 7.84375C7.90625 7.625 8.125 7.375 8.28125 7.09375C8.4375 6.8125 8.51562 6.48438 8.48438 6.17188C8.45312 6.48438 8.34375 6.78125 8.17188 7.03125C8 7.28125 7.79688 7.51562 7.57813 7.73438C7.35938 7.95312 7.125 8.15625 6.90625 8.39062C6.67188 8.59375 6.46875 8.84375 6.32813 9.125ZM6.14062 8C6.20312 7.82813 6.29688 7.6875 6.40625 7.54687C6.51563 7.40625 6.625 7.28125 6.75 7.14063C6.85938 7 6.98438 6.85938 7.0625 6.70313C7.15625 6.54688 7.20313 6.34375 7.17188 6.17188C7.14063 6.34375 7.0625 6.5 6.95313 6.64062C6.85938 6.78125 6.73438 6.90625 6.625 7.04687C6.51563 7.1875 6.39062 7.32813 6.29688 7.48438C6.20312 7.64063 6.14062 7.82813 6.14062 8Z" fill="#8D9998"/>
<path d="M4.71875 3.78126C4.71875 3.78126 4.5 3.01563 4.96875 1.23438C5.4375 -0.546869 0.3125 0.296882 0.3125 3.54688C0.3125 3.90626 0.765625 3.92188 1.57812 2.92188C1.57812 2.92188 1.25 4.32813 2.29688 3.71876C2.29688 3.71876 2.125 4.71876 2.92188 4.26563C2.92188 4.26563 3.51562 4.06251 4.1875 4.25001C4.1875 4.23438 4.53125 4.12501 4.71875 3.78126Z" fill="#E8E8E8"/>
<path d="M4.46875 0.390632C3.09375 0.359382 0.8125 1.45313 0.8125 3.62501V3.65626C0.484375 3.84376 0.3125 3.76563 0.3125 3.54688C0.3125 1.07813 3.25 7.42078e-06 4.46875 0.390632Z" fill="#D1D1D1"/>
<path d="M3.71876 1.51562C2.03126 1.98438 1.89063 3.85938 1.89063 3.85938C1.53126 3.9375 1.37501 3.78125 1.37501 3.57812C1.35938 2.89062 2.50001 1.60938 3.71876 1.51562ZM3.71876 2.82813C2.15626 3.9375 2.73438 4.32812 2.73438 4.32812C2.10938 4.60938 2.10938 3.875 2.25001 3.75C2.64063 3.39062 3.45313 2.8125 3.71876 2.82813Z" fill="#D1D1D1"/>
<path d="M0.765625 3.67188C1.01562 3.48438 1.21875 3.25 1.42188 3.01563C1.625 2.78125 1.82813 2.54688 2.04688 2.3125C2.26563 2.09375 2.51562 1.875 2.79688 1.71875C3.07812 1.5625 3.40625 1.48438 3.71875 1.51563C3.40625 1.54688 3.10938 1.65625 2.85938 1.82813C2.60937 2 2.375 2.20313 2.15625 2.42188C1.9375 2.64063 1.73438 2.875 1.5 3.09375C1.28125 3.32813 1.04688 3.53125 0.765625 3.67188Z" fill="#8D9998"/>
<path d="M1.89062 3.85937C2.0625 3.79687 2.20312 3.70312 2.34375 3.59375C2.48437 3.48437 2.60938 3.375 2.75 3.25C2.89062 3.14062 3.03125 3.01562 3.1875 2.9375C3.34375 2.84375 3.54687 2.79687 3.71875 2.82812C3.54687 2.85937 3.39062 2.9375 3.25 3.04687C3.10937 3.14062 2.98438 3.26562 2.84375 3.375C2.70313 3.48437 2.5625 3.60937 2.40625 3.70312C2.25 3.79687 2.0625 3.85937 1.89062 3.85937Z" fill="#8D9998"/>
</g>
<defs>
<clipPath id="clip0_40_61">
<rect width="10" height="10" fill="white"/>
</clipPath>
</defs>
</svg>
