<svg width="12" height="12" viewBox="0 0 12 12" fill="none" xmlns="http://www.w3.org/2000/svg">
<path d="M4.68001 3.81001C5.01601 3.81001 5.28601 3.54001 5.28601 3.20401C5.28601 2.86801 5.01601 2.59801 4.68001 2.59801C4.34401 2.59801 4.07401 2.86801 4.07401 3.20401C4.07401 3.54001 4.34401 3.81001 4.68001 3.81001Z" fill="#222222"/>
<path fill-rule="evenodd" clip-rule="evenodd" d="M5.898 5.13001C5.898 4.48201 5.352 4.01401 4.68 4.01401C4.008 4.01401 3.462 4.48201 3.462 5.13001V5.43601C3.462 5.49001 3.486 5.54401 3.522 5.58001C3.558 5.61601 3.612 5.64001 3.666 5.64001H5.694C5.748 5.64001 5.802 5.61601 5.838 5.58001C5.874 5.54401 5.898 5.49001 5.898 5.43601V5.13001V5.13001ZM3.45 6.90001C3.45 6.78066 3.49741 6.6662 3.5818 6.58181C3.66619 6.49742 3.78065 6.45001 3.9 6.45001H8.1C8.21934 6.45001 8.3338 6.49742 8.41819 6.58181C8.50259 6.6662 8.55 6.78066 8.55 6.90001C8.55 7.01936 8.50259 7.13381 8.41819 7.21821C8.3338 7.3026 8.21934 7.35001 8.1 7.35001H3.9C3.78065 7.35001 3.66619 7.3026 3.5818 7.21821C3.49741 7.13381 3.45 7.01936 3.45 6.90001ZM3.45 8.70001C3.45 8.58066 3.49741 8.4662 3.5818 8.38181C3.66619 8.29742 3.78065 8.25001 3.9 8.25001H8.1C8.21934 8.25001 8.3338 8.29742 8.41819 8.38181C8.50259 8.4662 8.55 8.58066 8.55 8.70001C8.55 8.81936 8.50259 8.93381 8.41819 9.01821C8.3338 9.1026 8.21934 9.15001 8.1 9.15001H3.9C3.78065 9.15001 3.66619 9.1026 3.5818 9.01821C3.49741 8.93381 3.45 8.81936 3.45 8.70001Z" fill="#222222"/>
<path fill-rule="evenodd" clip-rule="evenodd" d="M1.5 1.5C1.5 0.838803 2.0388 0.300003 2.7 0.300003H6.714C7.0512 0.300003 7.3692 0.442803 7.593 0.678603L7.5966 0.682803L10.1838 3.504C10.3992 3.7338 10.5 4.0344 10.5 4.32V10.5C10.5 11.1612 9.9612 11.7 9.3 11.7H2.7C2.0388 11.7 1.5 11.1612 1.5 10.5V1.5V1.5ZM6.7134 1.5H2.7V10.5H9.3V4.3152L6.7224 1.5042L6.7206 1.5036C6.71841 1.50202 6.71598 1.5008 6.7134 1.5V1.5Z" fill="#222222"/>
<path fill-rule="evenodd" clip-rule="evenodd" d="M6.714 0.300003C6.87313 0.300003 7.02574 0.363217 7.13826 0.475739C7.25078 0.588261 7.314 0.740873 7.314 0.900003V3.72H9.9C9.97879 3.72 10.0568 3.73552 10.1296 3.76568C10.2024 3.79583 10.2685 3.84002 10.3243 3.89574C10.38 3.95145 10.4242 4.0176 10.4543 4.09039C10.4845 4.16319 10.5 4.24121 10.5 4.32C10.5 4.3988 10.4845 4.47682 10.4543 4.54961C10.4242 4.62241 10.38 4.68855 10.3243 4.74427C10.2685 4.79998 10.2024 4.84418 10.1296 4.87433C10.0568 4.90448 9.97879 4.92 9.9 4.92H6.714C6.55487 4.92 6.40226 4.85679 6.28973 4.74427C6.17721 4.63175 6.114 4.47913 6.114 4.32V0.900003C6.114 0.740873 6.17721 0.588261 6.28973 0.475739C6.40226 0.363217 6.55487 0.300003 6.714 0.300003Z" fill="#222222"/>
</svg>
