<svg width="10" height="10" viewBox="0 0 10 10" fill="none" xmlns="http://www.w3.org/2000/svg">
<path d="M3.4935 1.033L3.135 1.141C2.81579 1.23727 2.53072 1.42271 2.31335 1.67552C2.09597 1.92833 1.95534 2.23797 1.908 2.568C1.7595 3.602 2.0915 4.811 2.892 6.1975C3.6905 7.5805 4.5695 8.4715 5.537 8.8615C5.84786 8.98679 6.18817 9.02017 6.51745 8.95768C6.84673 8.8952 7.15115 8.73946 7.3945 8.509L7.6655 8.252C7.84147 8.08546 7.951 7.86068 7.97371 7.61946C7.99643 7.37824 7.93079 7.13697 7.789 6.9405L7.111 6.0005C7.01934 5.8736 6.89026 5.77856 6.74186 5.72871C6.59347 5.67885 6.43319 5.67668 6.2835 5.7225L5.258 6.036L5.2315 6.041C5.1185 6.0575 4.8575 5.813 4.5325 5.25C4.1925 4.661 4.1225 4.3165 4.216 4.2275L4.7375 3.741C4.92821 3.56323 5.05848 3.33022 5.11004 3.07466C5.1616 2.8191 5.13186 2.55381 5.025 2.316L4.694 1.5805C4.59447 1.35917 4.41785 1.18159 4.19706 1.08086C3.97628 0.980125 3.7264 0.963116 3.494 1.033H3.4935ZM4.2385 1.7855L4.5685 2.521C4.63277 2.66362 4.65074 2.82278 4.61989 2.97614C4.58904 3.1295 4.51092 3.26933 4.3965 3.376L3.8735 3.863C3.539 4.18 3.65 4.721 4.1 5.5C4.523 6.233 4.909 6.595 5.324 6.532L5.386 6.519L6.43 6.2005C6.4799 6.18517 6.53335 6.18585 6.58285 6.20244C6.63235 6.21903 6.67541 6.2507 6.706 6.293L7.384 7.233C7.455 7.33123 7.4879 7.4519 7.47658 7.57256C7.46527 7.69323 7.41052 7.80568 7.3225 7.889L7.051 8.146C6.87717 8.31051 6.65977 8.42167 6.42463 8.46625C6.18948 8.51083 5.94648 8.48697 5.7245 8.3975C4.8755 8.0555 4.073 7.242 3.3255 5.9475C2.576 4.65 2.2725 3.5465 2.403 2.639C2.43678 2.40322 2.53723 2.18199 2.69251 2.00137C2.84779 1.82076 3.05145 1.68827 3.2795 1.6195L3.638 1.5115C3.75423 1.47658 3.87919 1.48512 3.98959 1.53553C4.09999 1.58595 4.18828 1.67479 4.238 1.7855H4.2385Z" fill="#1e73f2" />
</svg>
