<svg width="4" height="168" viewBox="0 0 4 168" fill="none" xmlns="http://www.w3.org/2000/svg">
<path d="M2 167.333C2.73638 167.333 3.33333 166.736 3.33333 166C3.33333 165.264 2.73638 164.667 2 164.667C1.26362 164.667 0.666667 165.264 0.666667 166C0.666667 166.736 1.26362 167.333 2 167.333ZM2 3.33333C2.73638 3.33333 3.33333 2.73637 3.33333 2C3.33333 1.26363 2.73638 0.666672 2 0.666672C1.26362 0.666672 0.666667 1.26363 0.666667 2C0.666667 2.73637 1.26362 3.33333 2 3.33333ZM2.25 166L2.25 2H1.75L1.75 166H2.25Z" fill="black"/>
</svg>
