<svg width="284" height="4" viewBox="0 0 284 4" fill="none" xmlns="http://www.w3.org/2000/svg">
<path d="M0.666667 2C0.666667 2.73638 1.26362 3.33333 2 3.33333C2.73638 3.33333 3.33333 2.73638 3.33333 2C3.33333 1.26362 2.73638 0.666667 2 0.666667C1.26362 0.666667 0.666667 1.26362 0.666667 2ZM280.667 2C280.667 2.73638 281.264 3.33333 282 3.33333C282.736 3.33333 283.333 2.73638 283.333 2C283.333 1.26362 282.736 0.666667 282 0.666667C281.264 0.666667 280.667 1.26362 280.667 2ZM2 2.25L282 2.25V1.75L2 1.75V2.25Z" fill="black"/>
</svg>
