<svg width="10" height="10" viewBox="0 0 10 10" fill="none" xmlns="http://www.w3.org/2000/svg">
<path d="M8.26667 3.02708L5 5.43125L1.73333 3.02708M1.34792 2.23125C1.23741 2.23125 1.13143 2.27515 1.05329 2.35329C0.97515 2.43143 0.931252 2.53741 0.931252 2.64792V7.35833C0.931252 7.46884 0.97515 7.57482 1.05329 7.65296C1.13143 7.7311 1.23741 7.775 1.34792 7.775H8.65208C8.76259 7.775 8.86857 7.7311 8.94671 7.65296C9.02485 7.57482 9.06875 7.46884 9.06875 7.35833V2.64167C9.06875 2.53116 9.02485 2.42518 8.94671 2.34704C8.86857 2.2689 8.76259 2.225 8.65208 2.225H1.34792V2.23125Z" stroke="#F24E1E" stroke-linecap="round" stroke-linejoin="round"/>
</svg>
