<svg width="16" height="16" viewBox="0 0 16 16" fill="none" xmlns="http://www.w3.org/2000/svg">
<path d="M10.8459 8.60662C11.9018 7.84474 12.4374 6.97599 12.4374 6.01249C12.4374 3.80887 10.4068 0.966492 8.24994 0.966492C6.09306 0.966492 4.06244 3.80887 4.06244 6.01249C4.06244 7.16762 4.86706 8.03987 5.64194 8.61249C4.96332 8.90113 4.38446 9.38279 3.97726 9.99764C3.57007 10.6125 3.3525 11.3334 3.35156 12.0709V13.5662C3.35109 13.8554 3.46249 14.1336 3.66244 14.3425L4.27069 14.98C4.27069 14.9889 4.26806 14.9972 4.26806 15.0062C4.2682 15.1459 4.32375 15.2799 4.42253 15.3787C4.52131 15.4774 4.65524 15.533 4.79494 15.5331H11.7049C11.8446 15.533 11.9786 15.4774 12.0773 15.3787C12.1761 15.2799 12.2317 15.1459 12.2318 15.0062C12.2318 14.9972 12.2297 14.9889 12.2292 14.98L12.8374 14.3425C13.0374 14.1336 13.1487 13.8554 13.1482 13.5662V12.0709C13.1474 11.3311 12.9286 10.6079 12.5192 9.99177C12.1097 9.37563 11.5277 8.89384 10.8459 8.60662Z" fill="#E6E7E8"/>
<path d="M10.0857 8.14037C10.9073 7.58624 11.8126 6.71249 11.8126 5.51249C11.8126 3.39049 9.87131 0.591492 7.75006 0.591492C5.62881 0.591492 3.68756 3.39049 3.68756 5.51249C3.68756 6.70249 4.60368 7.59162 5.40818 8.14312C4.69772 8.39218 4.08216 8.85579 3.6466 9.46986C3.21105 10.0839 2.977 10.8181 2.97681 11.571V13.0662C2.97682 13.3232 3.07575 13.5703 3.25306 13.7562L3.90031 14.4351C3.91695 14.3425 3.9656 14.2587 4.03775 14.1983C4.1099 14.1379 4.20097 14.1048 4.29506 14.1047H11.2051C11.2991 14.1048 11.3902 14.1379 11.4624 14.1983C11.5345 14.2587 11.5832 14.3425 11.5998 14.4351L12.2471 13.7562C12.4244 13.5703 12.5233 13.3232 12.5233 13.0662V11.571C12.5232 10.8169 12.2885 10.0815 11.8517 9.46684C11.415 8.85213 10.7977 8.38855 10.0857 8.14037Z" fill="#0089EF"/>
<path d="M7.74999 8.01338C7.36885 8.01388 6.99157 7.93704 6.64099 7.78751V7.82113C6.64099 8.43363 7.74999 9.18013 7.74999 9.18013C7.74999 9.18013 8.85899 8.43363 8.85899 7.82113V7.78751C8.5084 7.93702 8.13113 8.01386 7.74999 8.01338Z" fill="white"/>
<path d="M7.74995 3.59149C6.7202 3.59149 5.72858 4.08849 4.92395 4.82049V5.18749C4.92395 5.93699 5.22169 6.6558 5.75167 7.18578C6.28164 7.71575 7.00045 8.01349 7.74995 8.01349C8.49945 8.01349 9.21826 7.71575 9.74823 7.18578C10.2782 6.6558 10.576 5.93699 10.576 5.18749V4.82037C9.7712 4.08837 8.7797 3.59149 7.74995 3.59149Z" fill="white"/>
<path d="M7.75 3.59149C9.3465 3.59149 10.854 4.78249 11.7099 6.19924C11.7779 5.97642 11.8125 5.74473 11.8125 5.51174C11.8125 3.39049 9.87125 0.591492 7.75 0.591492C5.62875 0.591492 3.6875 3.39049 3.6875 5.51249C3.68809 5.74423 3.72357 5.97457 3.79275 6.19574C4.649 4.78012 6.15513 3.59149 7.75 3.59149Z" fill="#6DC9F7"/>
<path d="M11.2049 9.17987H4.29494C4.07299 9.17987 3.89307 9.3598 3.89307 9.58175V13.7029C3.89307 13.9248 4.07299 14.1047 4.29494 14.1047H11.2049C11.4269 14.1047 11.6068 13.9248 11.6068 13.7029V9.58175C11.6068 9.3598 11.4269 9.17987 11.2049 9.17987Z" fill="#FA759E"/>
<path d="M11.2049 9.17987H4.29494C4.24216 9.17985 4.1899 9.19024 4.14113 9.21043C4.09237 9.23062 4.04806 9.26022 4.01074 9.29754C3.97342 9.33486 3.94381 9.37917 3.92362 9.42793C3.90343 9.4767 3.89305 9.52897 3.89307 9.58175V9.95675C3.89305 9.90397 3.90343 9.8517 3.92362 9.80293C3.94381 9.75417 3.97342 9.70986 4.01074 9.67254C4.04806 9.63522 4.09237 9.60562 4.14113 9.58543C4.1899 9.56524 4.24216 9.55485 4.29494 9.55487H11.2049C11.2577 9.55485 11.31 9.56524 11.3588 9.58543C11.4075 9.60562 11.4518 9.63522 11.4891 9.67254C11.5265 9.70986 11.5561 9.75417 11.5763 9.80293C11.5964 9.8517 11.6068 9.90397 11.6068 9.95675V9.58175C11.6068 9.52897 11.5964 9.4767 11.5763 9.42793C11.5561 9.37917 11.5265 9.33486 11.4891 9.29754C11.4518 9.26022 11.4075 9.23062 11.3588 9.21043C11.31 9.19024 11.2577 9.17985 11.2049 9.17987Z" fill="white"/>
<path d="M11.2049 14.1047H4.29494C4.07299 14.1047 3.89307 14.2847 3.89307 14.5066C3.89307 14.7286 4.07299 14.9085 4.29494 14.9085H11.2049C11.4269 14.9085 11.6068 14.7286 11.6068 14.5066C11.6068 14.2847 11.4269 14.1047 11.2049 14.1047Z" fill="#FFD7E5"/>
<path d="M8.62863 10.6486C8.36934 10.4728 8.06327 10.3789 7.75001 10.3789C7.43674 10.3789 7.13068 10.4728 6.87138 10.6486C6.69762 10.7741 6.56631 10.9496 6.49501 11.1517C6.4237 11.3538 6.41581 11.5729 6.47238 11.7796C6.53276 11.9844 6.84163 12.125 6.84163 12.125C6.84163 12.125 6.63163 12.2074 6.70213 12.3875C6.77263 12.5676 7.03963 12.55 7.03963 12.55C7.03963 12.55 6.85888 12.9943 7.07151 13.0701C7.28413 13.146 7.34576 12.899 7.34576 12.899C7.34576 12.899 7.30376 13.1266 7.50263 13.149C7.63288 13.1625 7.72651 12.9625 7.75001 12.875C7.77351 12.9634 7.86713 13.1634 7.99713 13.1489C8.19613 13.1268 8.15413 12.8989 8.15413 12.8989C8.15413 12.8989 8.21576 13.1458 8.42838 13.07C8.64101 12.9943 8.46013 12.5499 8.46013 12.5499C8.46013 12.5499 8.72751 12.5683 8.79763 12.3874C8.86776 12.2065 8.65838 12.125 8.65838 12.125C8.65838 12.125 8.96726 11.9849 9.02763 11.7801C9.08432 11.5733 9.07648 11.3542 9.00517 11.152C8.93387 10.9497 8.80249 10.7741 8.62863 10.6486ZM6.97863 11.6798C6.86063 11.5673 7.01613 11.3015 7.08801 11.2808C7.19713 11.2493 7.42976 11.4798 7.56013 11.6219C7.56918 11.6316 7.57529 11.6437 7.57775 11.6568C7.58021 11.6698 7.57892 11.6833 7.57402 11.6957C7.56913 11.7081 7.56084 11.7188 7.55011 11.7266C7.53938 11.7345 7.52664 11.7391 7.51338 11.74C7.33988 11.7511 7.05838 11.7561 6.97838 11.6798H6.97863ZM7.88976 12.4808H7.61051C7.59635 12.4808 7.58244 12.4772 7.5701 12.4702C7.55777 12.4633 7.54745 12.4532 7.54014 12.4411C7.53283 12.429 7.52878 12.4152 7.52838 12.401C7.52799 12.3869 7.53126 12.3729 7.53788 12.3604L7.67738 12.0963C7.68436 12.083 7.69481 12.072 7.70761 12.0643C7.7204 12.0566 7.73506 12.0525 7.75001 12.0525C7.76495 12.0525 7.77961 12.0566 7.79241 12.0643C7.80521 12.072 7.81566 12.083 7.82263 12.0963L7.96251 12.3604C7.96915 12.3729 7.97242 12.387 7.97201 12.4011C7.9716 12.4153 7.96751 12.4292 7.96016 12.4413C7.9528 12.4534 7.94243 12.4634 7.93004 12.4703C7.91766 12.4773 7.90369 12.4809 7.88951 12.4808H7.88976ZM8.52188 11.6798C8.44188 11.7561 8.16038 11.7511 7.98713 11.74C7.97387 11.7391 7.96114 11.7345 7.95041 11.7266C7.93967 11.7188 7.93138 11.7081 7.92649 11.6957C7.9216 11.6833 7.92031 11.6698 7.92277 11.6568C7.92523 11.6437 7.93133 11.6316 7.94038 11.6219C8.07076 11.4798 8.30288 11.2493 8.41238 11.2808C8.48438 11.3015 8.63963 11.567 8.52163 11.6798H8.52188Z" fill="white"/>
<path d="M10.3431 8.10887C11.4009 7.34637 11.9376 6.47687 11.9376 5.51249C11.9376 3.30887 9.90693 0.466492 7.75006 0.466492C5.59318 0.466492 3.56256 3.30887 3.56256 5.51249C3.56256 6.66912 4.36931 7.54224 5.14518 8.11462C4.46609 8.40232 3.8866 8.88338 3.47883 9.49792C3.07105 10.1125 2.853 10.8333 2.85181 11.5709V13.0662C2.85133 13.3554 2.96268 13.6336 3.16256 13.8426L3.77081 14.4801C3.77081 14.489 3.76818 14.4974 3.76818 14.5064C3.76835 14.6461 3.82391 14.78 3.92268 14.8787C4.02146 14.9775 4.15537 15.0331 4.29506 15.0332H11.2051C11.3447 15.0331 11.4787 14.9775 11.5774 14.8787C11.6762 14.78 11.7318 14.6461 11.7319 14.5064C11.7319 14.4974 11.7297 14.489 11.7293 14.4801L12.3376 13.8426C12.5375 13.6336 12.6489 13.3554 12.6484 13.0662V11.5709C12.6473 10.831 12.428 10.108 12.0179 9.49215C11.6078 8.87635 11.0253 8.39518 10.3431 8.10887ZM8.87106 8.67499L8.84756 8.68612C8.83273 8.69317 8.81943 8.70307 8.80843 8.71526C8.79742 8.72745 8.78893 8.74169 8.78342 8.75716C8.77792 8.77263 8.77552 8.78903 8.77636 8.80544C8.7772 8.82184 8.78126 8.83791 8.78831 8.85274C8.79536 8.86757 8.80526 8.88087 8.81745 8.89187C8.82964 8.90288 8.84388 8.91137 8.85935 8.91688C8.87482 8.92238 8.89123 8.92478 8.90763 8.92394C8.92403 8.9231 8.9401 8.91904 8.95493 8.91199L8.97818 8.90087C9.3641 8.71974 9.73707 8.5122 10.0944 8.27974C10.5678 8.45281 10.9983 8.72565 11.3569 9.07974C11.3079 9.06395 11.2567 9.05553 11.2052 9.05474H8.12606C8.46206 8.78287 8.94718 8.31587 8.98031 7.86849C9.49331 7.63273 9.92802 7.25492 10.233 6.77978C10.5379 6.30464 10.7004 5.75208 10.7011 5.18749V5.10999C11.0336 5.44438 11.3264 5.81615 11.5734 6.21787C11.2721 7.14074 10.3678 7.96487 8.87106 8.67499ZM6.13756 6.05824C6.43556 6.15813 6.75844 6.15535 7.05468 6.05037L7.48618 5.89724C7.65722 5.83662 7.8439 5.83662 8.01493 5.89724L8.44593 6.04999C8.74218 6.15498 9.06505 6.15775 9.36306 6.05787L10.4001 5.71049C10.2792 6.32447 9.94884 6.87742 9.46551 7.27487C8.98217 7.67233 8.37582 7.88961 7.75006 7.88961C7.12429 7.88961 6.51794 7.67233 6.03461 7.27487C5.55127 6.87742 5.22094 6.32447 5.10006 5.71049L6.13756 6.05824ZM5.15006 4.78437C5.94656 4.10937 6.86968 3.71649 7.75068 3.71649C8.63168 3.71649 9.55531 4.10987 10.3519 4.78462L9.30668 4.48462C9.04379 4.40937 8.76466 4.41236 8.50343 4.49324L7.98468 4.65387C7.83226 4.70112 7.66911 4.70112 7.51668 4.65387L6.99718 4.49374C6.736 4.41287 6.45691 4.40987 6.19406 4.48512L5.15006 4.78437ZM7.75006 8.13837C8.07542 8.13842 8.39853 8.08439 8.70618 7.97849C8.57843 8.36699 8.03831 8.82074 7.75006 9.02749C7.46156 8.82087 6.92143 8.36749 6.79381 7.97849C7.10152 8.08433 7.42466 8.13836 7.75006 8.13837ZM7.75006 0.716492C9.77818 0.716492 11.6876 3.41799 11.6876 5.51187C11.6868 5.63593 11.6758 5.75972 11.6548 5.88199C10.6676 4.40624 9.16256 3.46649 7.75006 3.46649C6.33756 3.46649 4.83218 4.40687 3.84493 5.88299C3.82348 5.76066 3.81265 5.63669 3.81256 5.51249C3.81256 3.41799 5.72193 0.716492 7.75006 0.716492ZM5.38968 8.28537C5.7562 8.53183 6.14548 8.74262 6.55218 8.91487C6.58296 8.9272 6.61739 8.9268 6.64787 8.91375C6.67836 8.90071 6.70241 8.87609 6.71475 8.8453C6.72708 8.81452 6.72668 8.7801 6.71363 8.74962C6.70059 8.71913 6.67596 8.69507 6.64518 8.68274C6.62018 8.67287 4.45993 7.78787 3.92931 6.21337C4.17575 5.81344 4.46751 5.44329 4.79881 5.11024V5.18749C4.79949 5.75212 4.96195 6.30474 5.26696 6.7799C5.57196 7.25507 6.00674 7.63288 6.51981 7.86862C6.55293 8.31599 7.03806 8.78299 7.37406 9.05487H4.29506C4.24347 9.05559 4.19228 9.06402 4.14318 9.07987C4.4977 8.7297 4.92258 8.45889 5.38968 8.28537ZM3.34356 13.6701C3.18808 13.5076 3.10146 13.2912 3.10181 13.0662V11.5709C3.10126 10.8292 3.33728 10.1067 3.77556 9.50837C3.77138 9.53275 3.76892 9.55739 3.76818 9.58212V13.7032C3.76831 13.7801 3.78543 13.856 3.81832 13.9255C3.85121 13.995 3.89906 14.0563 3.95843 14.1051C3.92064 14.1358 3.88728 14.1715 3.85931 14.2114L3.34356 13.6701ZM11.2051 14.7835H4.29506C4.22163 14.7835 4.1512 14.7543 4.09928 14.7024C4.04735 14.6505 4.01818 14.58 4.01818 14.5066C4.01818 14.4332 4.04735 14.3628 4.09928 14.3108C4.1512 14.2589 4.22163 14.2297 4.29506 14.2297H11.2051C11.2785 14.2297 11.3489 14.2589 11.4008 14.3108C11.4528 14.3628 11.4819 14.4332 11.4819 14.5066C11.4819 14.58 11.4528 14.6505 11.4008 14.7024C11.3489 14.7543 11.2785 14.7835 11.2051 14.7835ZM12.3984 13.0662C12.3988 13.2912 12.3121 13.5076 12.1566 13.6701L11.6408 14.211C11.6128 14.1712 11.5795 14.1354 11.5417 14.1047C11.601 14.0559 11.6489 13.9946 11.6818 13.9251C11.7146 13.8556 11.7318 13.7797 11.7319 13.7029V13.1904C11.7319 13.1572 11.7188 13.1254 11.6953 13.102C11.6719 13.0785 11.6401 13.0654 11.6069 13.0654C11.5738 13.0654 11.542 13.0785 11.5185 13.102C11.4951 13.1254 11.4819 13.1572 11.4819 13.1904V13.7029C11.4818 13.7763 11.4526 13.8466 11.4007 13.8985C11.3488 13.9504 11.2785 13.9796 11.2051 13.9797H4.29506C4.22165 13.9797 4.15126 13.9505 4.09935 13.8986C4.04744 13.8467 4.01825 13.7763 4.01818 13.7029V9.58174C4.01825 9.50833 4.04744 9.43794 4.09935 9.38603C4.15126 9.33412 4.22165 9.30493 4.29506 9.30487H11.2051C11.2785 9.30497 11.3488 9.33417 11.4007 9.38607C11.4526 9.43797 11.4818 9.50834 11.4819 9.58174V11.5174C11.4819 11.5505 11.4951 11.5823 11.5185 11.6058C11.542 11.6292 11.5738 11.6424 11.6069 11.6424C11.6401 11.6424 11.6719 11.6292 11.6953 11.6058C11.7188 11.5823 11.7319 11.5505 11.7319 11.5174V9.58174C11.7312 9.55701 11.7287 9.53236 11.7244 9.50799C12.1628 10.1063 12.3989 10.8288 12.3984 11.5705V13.0662Z" fill="#3A2C60"/>
<path d="M11.6069 11.8625C11.5738 11.8625 11.542 11.8757 11.5185 11.8991C11.4951 11.9225 11.4819 11.9543 11.4819 11.9875V12.7375C11.4819 12.7706 11.4951 12.8024 11.5185 12.8259C11.542 12.8493 11.5738 12.8625 11.6069 12.8625C11.6401 12.8625 11.6719 12.8493 11.6953 12.8259C11.7188 12.8024 11.7319 12.7706 11.7319 12.7375V11.9875C11.7319 11.9543 11.7188 11.9225 11.6953 11.8991C11.6719 11.8757 11.6401 11.8625 11.6069 11.8625Z" fill="#3A2C60"/>
<path d="M6.55232 4.98938C6.24844 4.98938 6.00232 5.26988 6.00232 5.26988C6.00232 5.26988 6.24857 5.5505 6.55232 5.5505C6.85607 5.5505 7.10232 5.26988 7.10232 5.26988C7.10232 5.26988 6.85607 4.98938 6.55232 4.98938Z" fill="white"/>
<path d="M8.94758 4.98938C8.64383 4.98938 8.39758 5.26988 8.39758 5.26988C8.39758 5.26988 8.64383 5.5505 8.94758 5.5505C9.25133 5.5505 9.49758 5.26988 9.49758 5.26988C9.49758 5.26988 9.25133 4.98938 8.94758 4.98938Z" fill="white"/>
</svg>
