<svg width="10" height="10" viewBox="0 0 10 10" fill="none" xmlns="http://www.w3.org/2000/svg">
<path d="M1.875 1.25V8.125H5.625V1.25H1.875ZM1.5625 0.625H5.9375C6.02038 0.625 6.09987 0.657924 6.15847 0.716529C6.21708 0.775134 6.25 0.85462 6.25 0.9375V8.4375C6.25 8.52038 6.21708 8.59987 6.15847 8.65847C6.09987 8.71708 6.02038 8.75 5.9375 8.75H1.5625C1.47962 8.75 1.40013 8.71708 1.34153 8.65847C1.28292 8.59987 1.25 8.52038 1.25 8.4375V0.9375C1.25 0.85462 1.28292 0.775134 1.34153 0.716529C1.40013 0.657924 1.47962 0.625 1.5625 0.625Z" fill="#222222"/>
<path d="M2.5 2.5H5V3.125H2.5V2.5ZM2.5 4.375H5V5H2.5V4.375ZM2.5 6.25H5V6.875H2.5V6.25ZM6.25 5H7.5V5.625H6.25V5ZM6.25 6.25H7.5V6.875H6.25V6.25ZM0.625 8.125H9.375V8.75H0.625V8.125Z" fill="#222222"/>
<path d="M6.25 3.75V8.125H8.125V3.75H6.25ZM5.9375 3.125H8.4375C8.52038 3.125 8.59987 3.15792 8.65847 3.21653C8.71708 3.27513 8.75 3.35462 8.75 3.4375V8.4375C8.75 8.52038 8.71708 8.59987 8.65847 8.65847C8.59987 8.71708 8.52038 8.75 8.4375 8.75H5.9375C5.85462 8.75 5.77513 8.71708 5.71653 8.65847C5.65792 8.59987 5.625 8.52038 5.625 8.4375V3.4375C5.625 3.35462 5.65792 3.27513 5.71653 3.21653C5.77513 3.15792 5.85462 3.125 5.9375 3.125Z" fill="#222222"/>
</svg>
