<svg width="16" height="16" viewBox="0 0 16 16" fill="none" xmlns="http://www.w3.org/2000/svg">
<g clip-path="url(#clip0_89_431)">
<path d="M0.5 14.3771H15.5C15.5 13.8266 15.5 9.79882 15.5 9.24832H0.5C0.5 9.79882 0.5 13.8263 0.5 14.3771Z" fill="#A4C9FF"/>
<path d="M1.72519 10.296C2.53 10.4576 3.3465 10.4823 4.27444 10.296C5.05 10.1403 5.83069 10.1165 6.72494 10.296C7.03819 10.3589 7.36213 10.4239 7.99963 10.4239C8.637 10.4239 8.961 10.3589 9.27425 10.296C9.58937 10.2328 9.887 10.173 10.4996 10.173C11.7331 10.173 11.7349 10.4239 12.9998 10.4239C14.2647 10.4239 14.2665 10.173 15.5 10.173V9.92207C14.2351 9.92207 14.2333 10.173 12.9998 10.173C11.7662 10.173 11.7645 9.92207 10.4996 9.92207C9.86212 9.92207 9.53813 9.98714 9.22488 10.05C8.90975 10.1133 8.61213 10.173 7.99963 10.173C7.38713 10.173 7.08944 10.1133 6.77431 10.05C5.96769 9.88807 5.15112 9.86407 4.22506 10.05C3.4495 10.2057 2.66881 10.2295 1.77456 10.05C1.46131 9.98714 1.13737 9.92207 0.5 9.92207V10.173C1.11244 10.1729 1.41006 10.2328 1.72519 10.296Z" fill="#E0EBFC"/>
<path d="M0.5 11.6729C0.5 13.831 0.5 12.9634 0.5 15.125C0.5 15.3321 0.667875 15.5 0.875 15.5H15.125C15.3321 15.5 15.5 15.3321 15.5 15.125C15.5 13.6013 15.5 13.2067 15.5 11.6729H0.5Z" fill="#EAA97D"/>
<path d="M1.72519 11.796C2.53 11.9576 3.3465 11.9823 4.27444 11.796C5.05 11.6403 5.83069 11.6165 6.72494 11.796C7.03819 11.8589 7.36213 11.9239 7.99963 11.9239C8.637 11.9239 8.961 11.8589 9.27425 11.796C9.58937 11.7328 9.887 11.673 10.4996 11.673C11.7331 11.673 11.7349 11.9239 12.9998 11.9239C14.2647 11.9239 14.2665 11.673 15.5 11.673V11.4221C14.2351 11.4221 14.2333 11.673 12.9998 11.673C11.7662 11.673 11.7645 11.4221 10.4996 11.4221C9.86212 11.4221 9.53813 11.4871 9.22488 11.55C8.90975 11.6133 8.61213 11.673 7.99963 11.673C7.38713 11.673 7.08944 11.6133 6.77431 11.55C5.96769 11.3881 5.15112 11.3641 4.22506 11.55C3.4495 11.7057 2.66881 11.7295 1.77456 11.55C1.46131 11.4871 1.13737 11.4221 0.5 11.4221V11.673C1.11244 11.6729 1.41006 11.7328 1.72519 11.796Z" fill="#E0EBFC"/>
<path d="M15.125 15.625H0.875C0.599313 15.625 0.375 15.4007 0.375 15.125V9.24838C0.375 9.17938 0.431 9.12338 0.5 9.12338H15.5C15.569 9.12338 15.625 9.17938 15.625 9.24838V15.125C15.625 15.4007 15.4007 15.625 15.125 15.625ZM0.625 9.37338V15.125C0.625 15.2629 0.737125 15.375 0.875 15.375H15.125C15.2629 15.375 15.375 15.2629 15.375 15.125V9.37338H0.625Z" fill="#3762CC"/>
<path d="M14.5809 5.40788C14.4764 5.23469 14.3531 5.27119 13.6916 5.26294L13.348 5.46425L11.4912 5.29231L9.15945 4.41725C8.99983 4.35188 8.89308 4.36769 8.67608 4.37531L8.66645 4.09894C8.49351 4.19675 8.29495 4.25581 8.08214 4.26325C7.86908 4.27069 7.66664 4.2255 7.48714 4.13975L7.49683 4.41644C7.28008 4.424 7.00383 4.40169 6.78751 4.67944L6.78745 4.67938L6.78701 4.68C6.78283 4.68538 6.77914 4.691 6.77514 4.6965L5.78951 6.06375L3.90058 6.61663C3.35783 6.51094 3.55001 6.49256 2.77614 6.77506C2.57989 6.84675 2.52408 7.09844 2.58201 7.24163C2.75926 7.68013 2.76876 7.76513 2.9157 7.82944C3.0407 7.88413 3.06401 7.85894 3.77414 7.68906C3.9297 7.65188 3.9837 7.57263 4.18545 7.36344L5.7352 7.19325C5.96739 7.16775 6.18233 7.05869 6.34001 6.88644L6.69651 6.497L6.74426 7.864C7.16776 7.84919 9.24358 7.77669 9.66795 7.76188L9.60414 5.93356L10.9986 6.28406C11.0903 6.30713 11.185 6.3165 11.2795 6.312L13.3441 6.21256L13.6459 6.36431C14.4326 6.28319 14.448 6.29981 14.5395 6.21463C14.5936 6.16419 14.6258 6.09456 14.6293 6.02063C14.6523 5.52113 14.67 5.55556 14.5809 5.40788Z" fill="#F9CFCF"/>
<path d="M9.29182 2.48157L9.07407 2.33607C8.79519 2.14976 8.76857 1.87732 8.74726 1.81476C8.39551 2.23026 7.79326 2.3287 7.79326 2.3287C7.79326 2.3287 7.67994 2.34782 7.62201 2.35432C7.24619 2.39638 6.96594 2.33157 6.75957 2.22838C6.74057 2.36032 6.74682 2.44026 6.75132 2.57032C6.52957 2.57363 6.36176 2.75638 6.36913 2.96776C6.37651 3.17988 6.55607 3.34576 6.77007 3.33826C6.78413 3.33776 6.79794 3.33645 6.81157 3.33451C6.96207 3.88682 7.48032 4.2842 8.08219 4.2632C8.68407 4.2422 9.17332 3.80963 9.28494 3.24813C9.29869 3.24907 9.31257 3.24945 9.32663 3.24895C9.54063 3.24145 9.70819 3.06345 9.70076 2.85138C9.69319 2.63295 9.50432 2.46851 9.29182 2.48157Z" fill="#F9CFCF"/>
<path d="M8.05109 3.73762C7.96534 3.73762 7.88497 3.708 7.82903 3.65543C7.78372 3.61281 7.75772 3.55787 7.75578 3.50068C7.75453 3.46618 7.78159 3.43725 7.81609 3.43612C7.84909 3.4335 7.87953 3.46193 7.88065 3.49643C7.88153 3.52081 7.89328 3.54431 7.91465 3.56437C7.94878 3.5965 8.00278 3.61493 8.05978 3.6125C8.11684 3.61056 8.16809 3.58937 8.2004 3.55443C8.22034 3.53287 8.2304 3.50862 8.22965 3.48418C8.2284 3.44968 8.25547 3.42075 8.28997 3.41962C8.32559 3.41637 8.3534 3.44543 8.35453 3.47993C8.35653 3.53712 8.3344 3.59375 8.29215 3.63937C8.23747 3.6985 8.15434 3.73431 8.06422 3.73743C8.05984 3.73756 8.05553 3.73762 8.05109 3.73762Z" fill="#3762CC"/>
<path d="M7.41735 3.36724C7.33279 3.37018 7.2616 3.30381 7.25867 3.21924L7.24973 2.96368C7.24679 2.87912 7.31316 2.80793 7.39773 2.80499C7.48229 2.80206 7.55348 2.86843 7.55641 2.95299L7.56535 3.20856C7.56829 3.29312 7.50192 3.36431 7.41735 3.36724Z" fill="#3762CC"/>
<path d="M8.67382 3.32339C8.58926 3.32633 8.51807 3.25995 8.51513 3.17539L8.5062 2.91983C8.50326 2.83527 8.56963 2.76408 8.6542 2.76114C8.73876 2.7582 8.80995 2.82458 8.81288 2.90914L8.82182 3.1647C8.8247 3.24927 8.75832 3.32045 8.67382 3.32339Z" fill="#3762CC"/>
<path d="M6.47971 2.03156C6.44371 2.26637 6.4799 2.41074 6.52103 2.64962C6.58621 2.59999 6.66565 2.57118 6.7514 2.57024C6.74684 2.43962 6.74065 2.36087 6.75978 2.22837C6.64453 2.17081 6.5524 2.10131 6.47971 2.03156Z" fill="#4671C6"/>
<path d="M8.89423 1.13926L8.89455 1.13932C8.84098 0.999507 8.75348 0.891007 8.65036 0.806507L8.65086 0.80657C8.34905 0.564195 7.9453 0.483382 7.70842 0.502757L7.70861 0.50282C7.18911 0.507257 6.84555 0.779195 6.84555 0.779195H6.84561H6.84555V0.779132C6.69442 0.883945 6.4478 0.988257 6.30311 0.931195C6.26842 1.03432 6.34842 1.23207 6.42055 1.37382C6.32236 1.44182 6.21748 1.48751 6.13011 1.47638C6.11961 1.62976 6.34898 1.89888 6.45711 2.00926H6.45717C6.65605 2.21101 7.0143 2.42226 7.62211 2.35419C7.68005 2.34769 7.79336 2.32857 7.79336 2.32857C8.39348 2.23082 9.13017 1.70801 8.89423 1.13926Z" fill="#4671C6"/>
<path d="M9.47544 1.8952L9.60688 1.94682C9.40388 1.43314 9.10188 1.31695 9.10188 1.31695L9.10194 1.31707C9.04032 1.28757 8.98457 1.28251 8.93457 1.29107C8.9645 1.51545 8.87969 1.65245 8.74719 1.81501C8.75282 1.83114 8.7575 1.84451 8.7575 1.84457C8.79025 2.04189 8.90238 2.22126 9.07413 2.33607L9.29188 2.48157C9.3615 2.47745 9.42757 2.4917 9.48682 2.52114L9.50688 2.32257C9.5215 2.17795 9.51032 2.03339 9.47532 1.89514L9.47544 1.8952Z" fill="#4671C6"/>
<path d="M6.521 2.7747C6.50557 2.7747 6.49007 2.77183 6.47532 2.76602C6.43463 2.75002 6.40525 2.71395 6.39788 2.67089L6.38357 2.58983C6.34882 2.39433 6.32138 2.23989 6.35619 2.0127C6.36319 1.96658 6.39538 1.9282 6.43957 1.91327C6.48357 1.89833 6.53263 1.90908 6.56625 1.94139C6.63913 2.01133 6.72307 2.07027 6.81563 2.11664C6.86382 2.14077 6.89113 2.19302 6.88344 2.24627C6.86819 2.35202 6.87082 2.41945 6.87469 2.52164L6.87632 2.56595C6.8775 2.59964 6.865 2.63233 6.84169 2.6567C6.81844 2.68108 6.78625 2.69495 6.75257 2.69533C6.69607 2.69589 6.64207 2.71452 6.59669 2.74908C6.57463 2.76595 6.548 2.7747 6.521 2.7747ZM6.59188 2.27714C6.59557 2.33802 6.60413 2.39802 6.61544 2.4647C6.61782 2.46402 6.62013 2.46339 6.6225 2.46277C6.62107 2.40889 6.62119 2.35733 6.62607 2.29795C6.6145 2.29114 6.60313 2.2842 6.59188 2.27714Z" fill="#3762CC"/>
<path d="M7.39666 2.49232C6.8756 2.49232 6.55323 2.28494 6.3681 2.09713C6.27891 2.00613 5.98998 1.69257 6.00535 1.46794C6.00766 1.43363 6.0241 1.40175 6.05073 1.37994C6.07729 1.35807 6.11179 1.34813 6.14579 1.3525C6.17379 1.356 6.21329 1.346 6.25866 1.3245C6.17604 1.13638 6.1511 0.991066 6.1846 0.891441C6.19554 0.858941 6.21935 0.832504 6.25035 0.818004C6.28141 0.803566 6.31691 0.802379 6.34891 0.815066C6.4266 0.845691 6.6196 0.783066 6.77166 0.678316C6.8141 0.645816 7.17166 0.384629 7.70098 0.377941C7.9716 0.356879 8.40785 0.451129 8.7291 0.709129C8.73166 0.711254 8.73416 0.713379 8.7366 0.715629C8.86291 0.821004 8.95529 0.948504 9.01129 1.09457C9.0121 1.0965 9.01273 1.0985 9.01341 1.10057C9.0951 1.30494 9.07816 1.52082 8.96416 1.7255C8.73748 2.13275 8.20873 2.38757 7.81335 2.452C7.80935 2.45275 7.69673 2.47163 7.63604 2.4785C7.55198 2.48794 7.47223 2.49232 7.39666 2.49232ZM6.28685 1.58182C6.33591 1.67582 6.43541 1.80863 6.54635 1.92188C6.71923 2.09725 7.04448 2.293 7.6081 2.23013C7.66179 2.224 7.77129 2.20563 7.77241 2.20544C8.17304 2.14013 8.59116 1.88157 8.74573 1.60394C8.82398 1.46332 8.8351 1.32313 8.77866 1.18719C8.77723 1.18357 8.77585 1.17994 8.77479 1.17625C8.73316 1.07169 8.6646 0.979879 8.57104 0.903191C8.56941 0.901879 8.56779 0.900441 8.56623 0.899066C8.28254 0.674691 7.91016 0.613379 7.72404 0.626941C7.71929 0.627566 7.71448 0.627879 7.7096 0.627941C7.2426 0.631879 6.92585 0.875066 6.92273 0.877504C6.92085 0.878941 6.91866 0.880691 6.91666 0.882004C6.80835 0.957066 6.61279 1.05857 6.43248 1.07088C6.4481 1.13007 6.47885 1.21294 6.53185 1.31713C6.56023 1.37288 6.54304 1.44094 6.4916 1.47657C6.42004 1.52625 6.3516 1.56132 6.28685 1.58182Z" fill="#3762CC"/>
<path d="M9.48692 2.64611C9.46786 2.64611 9.44892 2.6418 9.4313 2.63305C9.39005 2.61261 9.34567 2.60361 9.29936 2.6063C9.27211 2.60836 9.24517 2.60061 9.22248 2.58549L9.0048 2.43999C8.81117 2.31061 8.67736 2.10555 8.63623 1.87599L8.6293 1.85618C8.61498 1.81518 8.62298 1.76968 8.65048 1.73605C8.77967 1.57755 8.83355 1.47805 8.8108 1.30768C8.80186 1.24099 8.84736 1.17924 8.91367 1.16793C8.99311 1.15436 9.07311 1.16586 9.15105 1.20205C9.19323 1.21974 9.51305 1.36893 9.7233 1.90099C9.74155 1.9473 9.73067 2.00005 9.69555 2.03524C9.67786 2.05293 9.65573 2.06455 9.63217 2.06936C9.64061 2.15749 9.64036 2.24636 9.63142 2.33518L9.61142 2.53374C9.6073 2.57455 9.58342 2.61074 9.54748 2.63068C9.52861 2.64093 9.5078 2.64611 9.48692 2.64611ZM9.32905 2.35599C9.34536 2.35636 9.36161 2.35755 9.37761 2.35949L9.38255 2.31005C9.39561 2.18093 9.38605 2.05161 9.35423 1.92574C9.3418 1.8768 9.36023 1.82661 9.39811 1.79686C9.25442 1.5413 9.0998 1.45443 9.06323 1.43661C9.04898 1.60361 8.97411 1.72761 8.88442 1.84349C8.91598 2.00174 9.00967 2.14261 9.14367 2.23218L9.32905 2.35599Z" fill="#3762CC"/>
<path d="M8.03602 4.38901C7.43871 4.38901 6.9149 4.01776 6.72046 3.46232C6.46215 3.44451 6.25333 3.2347 6.24421 2.97207C6.23946 2.83495 6.28915 2.70432 6.38415 2.60438C6.45002 2.5352 6.53196 2.48682 6.6224 2.46276C6.62027 2.38388 6.6214 2.31013 6.63577 2.21051C6.64152 2.17076 6.6659 2.1362 6.70152 2.11757C6.73727 2.09901 6.77952 2.09863 6.8154 2.11651C7.03471 2.2262 7.30115 2.2642 7.60808 2.23001C7.66183 2.22395 7.77127 2.20557 7.7724 2.20538C7.77846 2.20432 8.33521 2.10788 8.65183 1.73388C8.6809 1.69951 8.72615 1.68345 8.77046 1.69182C8.81465 1.7002 8.85096 1.7317 8.86552 1.77426C8.8694 1.78576 8.87377 1.80257 8.8789 1.82382C8.90033 1.91326 8.9449 2.09926 9.14352 2.23201L9.32902 2.35595C9.45027 2.35938 9.56871 2.4067 9.65946 2.48907C9.7619 2.58201 9.8209 2.70913 9.82571 2.84695C9.8304 2.98313 9.78146 3.11295 9.68777 3.21251C9.60677 3.29857 9.50071 3.35313 9.38477 3.3692C9.22515 3.95276 8.70465 4.36645 8.08652 4.38807C8.06965 4.3887 8.05283 4.38901 8.03602 4.38901ZM6.81171 3.20957C6.86733 3.20957 6.91721 3.2467 6.93221 3.30176C7.07152 3.81301 7.54108 4.15632 8.07783 4.13832C8.61308 4.11963 9.05908 3.74363 9.16246 3.22388C9.17477 3.16213 9.23071 3.11976 9.29396 3.12357C9.3034 3.12432 9.31296 3.12457 9.3224 3.12413C9.39271 3.1217 9.4579 3.09226 9.50583 3.04138C9.55346 2.9907 9.5784 2.92488 9.57596 2.85582C9.57352 2.78607 9.54352 2.72163 9.49146 2.67438C9.43921 2.62688 9.36927 2.60201 9.29965 2.60645C9.27233 2.60832 9.24527 2.60076 9.22252 2.58563L9.00477 2.44013C8.82602 2.3207 8.73602 2.17163 8.6874 2.0507C8.31515 2.36682 7.83658 2.44838 7.81358 2.4522C7.8094 2.45295 7.69677 2.47182 7.63602 2.47863C7.35333 2.51045 7.09721 2.48738 6.87171 2.41045C6.87183 2.4452 6.87315 2.48088 6.87477 2.5222L6.8764 2.56601C6.87758 2.59957 6.86515 2.6322 6.84202 2.65651C6.8189 2.68082 6.7869 2.69482 6.75333 2.69538C6.68108 2.69651 6.61427 2.72532 6.5654 2.77682C6.51708 2.82763 6.49171 2.89395 6.49415 2.96345C6.49915 3.10638 6.61977 3.21901 6.76583 3.21345C6.77552 3.21313 6.78508 3.21213 6.79446 3.21088C6.80021 3.20988 6.80596 3.20957 6.81171 3.20957Z" fill="#3762CC"/>
<path d="M10.1653 9.93295L10.1158 9.71677L8.61682 10.0413C8.68445 10.3228 8.73132 10.546 8.73051 10.5424C8.79313 10.8293 9.08113 11.0578 9.40576 10.9859L9.8137 10.8955C10.2725 10.7937 10.2514 10.2963 10.2466 10.3847C10.2519 10.2871 10.2389 10.2548 10.1653 9.93295Z" fill="#F9CFCF"/>
<path d="M10.1157 9.71675L9.66771 7.76181L8.40096 7.80606V7.806L6.74402 7.86393L6.84352 10.3499H8.29214L8.36377 8.98806L8.61677 10.0412L10.1157 9.71675Z" fill="#6BDDDD"/>
<path d="M8.16858 14.1353L8.2922 10.3499H6.84358L7.05133 14.1353C6.80733 14.7191 6.84358 14.5725 6.84358 14.8248C6.84358 14.8957 6.90101 14.9531 6.97189 14.9531H8.16389C8.23476 14.9531 8.2922 14.8957 8.2922 14.8248C8.2922 14.5824 8.31358 14.7183 8.16858 14.1353Z" fill="#F9CFCF"/>
<path d="M10.1472 14.9531C10.7902 14.9531 11.3114 14.4319 11.3114 13.7889C11.3114 13.146 10.7902 12.6248 10.1472 12.6248C9.50426 12.6248 8.98303 13.146 8.98303 13.7889C8.98303 14.4319 9.50426 14.9531 10.1472 14.9531Z" fill="#E0EBFC"/>
<path d="M9.69627 14.6197C9.68527 14.5928 9.65602 14.5783 9.62796 14.5858L9.36902 14.6547C9.38077 14.6653 9.39264 14.6756 9.40483 14.6857C9.40596 14.6866 9.40702 14.6875 9.40814 14.6885C9.52596 14.7853 9.66314 14.8593 9.81296 14.9042L9.69627 14.6197Z" fill="#4671C6"/>
<path d="M10.6687 14.5858C10.6406 14.5784 10.6114 14.5929 10.6004 14.6197L10.484 14.9034C10.6499 14.8533 10.8003 14.7673 10.9259 14.6542L10.6687 14.5858Z" fill="#4671C6"/>
<path d="M11.1432 13.1859C11.143 13.1855 11.1427 13.1852 11.1425 13.1848C11.1257 13.1571 11.1075 13.1303 11.0884 13.1041L10.9669 13.5089C10.9586 13.5368 10.9722 13.5664 10.9987 13.5783L11.309 13.7171C11.2972 13.5234 11.2382 13.3425 11.1432 13.1859Z" fill="#4671C6"/>
<path d="M10.1102 13.3533L9.69383 13.7191C9.67527 13.7354 9.66914 13.7617 9.67858 13.7846L9.86095 14.2247C9.86989 14.2463 9.89095 14.2604 9.91433 14.2604H10.1483H10.3823C10.4057 14.2604 10.4268 14.2464 10.4357 14.2247L10.6181 13.7846C10.6275 13.7617 10.6214 13.7354 10.6028 13.7191L10.1865 13.3533C10.1646 13.3342 10.132 13.3342 10.1102 13.3533Z" fill="#4671C6"/>
<path d="M9.666 14.7138C9.64306 14.7138 9.61988 14.7075 9.59906 14.6943C9.54081 14.6573 9.52363 14.58 9.56069 14.5218L9.77606 14.1831C9.81306 14.1248 9.89031 14.1076 9.94863 14.1447C10.0069 14.1818 10.0241 14.259 9.987 14.3173L9.77163 14.6559C9.74781 14.6934 9.70731 14.7138 9.666 14.7138Z" fill="#3762CC"/>
<path d="M10.6299 14.7136C10.5889 14.7136 10.5487 14.6935 10.5247 14.6564L10.3073 14.3197C10.2699 14.2617 10.2866 14.1844 10.3446 14.1469C10.4027 14.1095 10.48 14.1261 10.5175 14.1841L10.7348 14.5208C10.7723 14.5788 10.7556 14.6562 10.6976 14.6937C10.6766 14.7071 10.6531 14.7136 10.6299 14.7136Z" fill="#3762CC"/>
<path d="M10.622 13.8793C10.5794 13.8793 10.5378 13.8575 10.5144 13.8183C10.4792 13.759 10.4985 13.6822 10.5579 13.6469L10.904 13.4408C10.9635 13.4056 11.0402 13.425 11.0754 13.4842C11.1107 13.5435 11.0913 13.6203 11.032 13.6556L10.6858 13.8617C10.6657 13.8737 10.6437 13.8793 10.622 13.8793Z" fill="#3762CC"/>
<path d="M9.67473 13.8795C9.65292 13.8795 9.63092 13.8738 9.61092 13.8618L9.26379 13.655C9.20448 13.6198 9.18504 13.543 9.22042 13.4837C9.25579 13.4244 9.33255 13.405 9.39173 13.4403L9.73886 13.6471C9.79817 13.6824 9.81761 13.7591 9.78223 13.8185C9.75886 13.8577 9.71736 13.8795 9.67473 13.8795Z" fill="#3762CC"/>
<path d="M10.1483 13.4641C10.0793 13.4641 10.0233 13.4081 10.0233 13.3391V12.9305C10.0233 12.8615 10.0793 12.8055 10.1483 12.8055C10.2173 12.8055 10.2733 12.8615 10.2733 12.9305V13.3391C10.2733 13.4081 10.2174 13.4641 10.1483 13.4641Z" fill="#3762CC"/>
<path d="M8.98669 13.7176L9.29807 13.5783C9.32457 13.5664 9.33813 13.5368 9.32982 13.5089L9.20826 13.1038C9.08082 13.278 9.00076 13.4888 8.98669 13.7176Z" fill="#4671C6"/>
<path d="M9.83032 12.6703L10.1102 12.9161C10.132 12.9352 10.1646 12.9352 10.1864 12.9161L10.4663 12.6703C10.3652 12.6416 10.2586 12.6259 10.1483 12.6259C10.038 12.6259 9.93145 12.6416 9.83032 12.6703Z" fill="#4671C6"/>
<path d="M10.3823 14.3855H9.91433C9.84008 14.3855 9.77376 14.3411 9.74545 14.2724L9.56314 13.8324C9.53314 13.76 9.55258 13.6766 9.61151 13.625L10.0276 13.2594C10.0277 13.2594 10.0277 13.2594 10.0278 13.2593C10.0966 13.199 10.2002 13.1991 10.269 13.2595L10.6853 13.6251C10.744 13.6768 10.7635 13.7601 10.7335 13.8324L10.5511 14.2726C10.5226 14.3412 10.4565 14.3855 10.3823 14.3855ZM9.97639 14.1767L9.97645 14.1769C9.97645 14.1768 9.97639 14.1768 9.97639 14.1767ZM9.95933 14.1355H10.3374L10.4842 13.7812L10.1484 13.4862L9.81258 13.7812L9.95933 14.1355ZM9.77651 13.8128L9.77639 13.813C9.77639 13.813 9.77645 13.8129 9.77651 13.8128Z" fill="#3762CC"/>
<path d="M8.98668 13.8426C8.96168 13.8426 8.93674 13.8351 8.91549 13.8204C8.87956 13.7956 8.85924 13.7537 8.86193 13.71C8.87699 13.464 8.96187 13.2289 9.10731 13.03C9.13524 12.9917 9.18293 12.9729 9.22931 12.9806C9.27606 12.9886 9.31424 13.0224 9.32793 13.0678L9.44949 13.4729C9.47581 13.5606 9.43256 13.655 9.34893 13.6923L9.03774 13.8316C9.02143 13.8391 9.00399 13.8426 8.98668 13.8426ZM9.20999 13.5449C9.21006 13.5449 9.21006 13.5449 9.20999 13.5449C9.21006 13.5449 9.21006 13.5449 9.20999 13.5449ZM9.17468 13.4269C9.16468 13.4537 9.15581 13.4809 9.14806 13.5084L9.19306 13.4883L9.17468 13.4269ZM9.24693 13.4642C9.24687 13.4642 9.24681 13.4642 9.24674 13.4642L9.24693 13.4642Z" fill="#3762CC"/>
<path d="M9.81305 15.0292C9.80111 15.0292 9.78905 15.0275 9.77724 15.024C9.61261 14.9748 9.46174 14.8944 9.3288 14.7851C9.3118 14.7708 9.29868 14.7595 9.28568 14.7478C9.25149 14.7171 9.23686 14.6702 9.24761 14.6255C9.2583 14.5809 9.29268 14.5457 9.33705 14.5339L9.59605 14.465C9.68418 14.441 9.77718 14.4874 9.81205 14.5721C9.81205 14.5721 9.81211 14.5722 9.81211 14.5723L9.9288 14.8568C9.94705 14.9013 9.93811 14.9524 9.9058 14.9881C9.88161 15.0146 9.84774 15.0292 9.81305 15.0292ZM9.66036 14.7066L9.66011 14.7066C9.66018 14.7066 9.6603 14.7066 9.66036 14.7066Z" fill="#3762CC"/>
<path d="M10.4841 15.0285C10.4494 15.0285 10.4156 15.014 10.3916 14.9875C10.3592 14.9518 10.3502 14.9006 10.3685 14.856L10.4849 14.5723C10.5195 14.4876 10.6123 14.4416 10.7009 14.465C10.7009 14.465 10.7009 14.465 10.701 14.465L10.9581 14.5335C11.0024 14.5452 11.0367 14.5804 11.0475 14.625C11.0582 14.6696 11.0437 14.7165 11.0096 14.7471C10.8695 14.8734 10.7002 14.9688 10.5203 15.0231C10.5084 15.0267 10.4962 15.0285 10.4841 15.0285Z" fill="#3762CC"/>
<path d="M11.3089 13.8422C11.2916 13.8422 11.2741 13.8386 11.2578 13.8312L10.9475 13.6923C10.8639 13.6549 10.8208 13.5607 10.8472 13.4729L10.9686 13.0681C10.9823 13.0226 11.0204 12.9887 11.0673 12.9808C11.114 12.9731 11.1613 12.992 11.1893 13.0304C11.2119 13.0614 11.2316 13.0908 11.2493 13.12C11.2496 13.1206 11.25 13.1211 11.2504 13.1217C11.3577 13.2987 11.421 13.502 11.4337 13.7096C11.4364 13.7532 11.416 13.7951 11.3801 13.8199C11.3588 13.8346 11.3339 13.8422 11.3089 13.8422ZM11.1036 13.4882L11.1476 13.5079C11.14 13.4809 11.1313 13.4542 11.1216 13.4279L11.1036 13.4882Z" fill="#3762CC"/>
<path d="M8.98668 13.8426C8.96168 13.8426 8.93674 13.8351 8.91549 13.8204C8.87956 13.7956 8.85924 13.7537 8.86193 13.71C8.87699 13.464 8.96187 13.2289 9.10731 13.03C9.13524 12.9917 9.18293 12.9729 9.22931 12.9806C9.27606 12.9886 9.31424 13.0224 9.32793 13.0678L9.44949 13.4729C9.47581 13.5606 9.43256 13.655 9.34893 13.6923L9.03774 13.8316C9.02143 13.8391 9.00399 13.8426 8.98668 13.8426ZM9.20999 13.5449C9.21006 13.5449 9.21006 13.5449 9.20999 13.5449C9.21006 13.5449 9.21006 13.5449 9.20999 13.5449ZM9.17468 13.4269C9.16468 13.4537 9.15581 13.4809 9.14806 13.5084L9.19306 13.4883L9.17468 13.4269ZM9.24693 13.4642C9.24687 13.4642 9.24681 13.4642 9.24674 13.4642L9.24693 13.4642Z" fill="#3762CC"/>
<path d="M10.1483 13.0554C10.1053 13.0554 10.0621 13.0403 10.0278 13.0101L9.74782 12.7642C9.71345 12.734 9.69832 12.6874 9.70839 12.6427C9.71851 12.5981 9.7522 12.5625 9.7962 12.5501C10.0257 12.4849 10.2709 12.4849 10.5004 12.5501C10.5444 12.5625 10.5781 12.5981 10.5883 12.6427C10.5983 12.6874 10.5832 12.734 10.5488 12.7642L10.2689 13.0101C10.2346 13.0402 10.1914 13.0554 10.1483 13.0554ZM10.1123 12.7516L10.1483 12.7832L10.1843 12.7516C10.1603 12.7507 10.1363 12.7507 10.1123 12.7516Z" fill="#3762CC"/>
<path d="M10.1472 15.0781C9.43634 15.0781 8.85803 14.4998 8.85803 13.7889C8.85803 13.0781 9.43634 12.4998 10.1472 12.4998C10.8581 12.4998 11.4364 13.0781 11.4364 13.7889C11.4364 14.4998 10.8581 15.0781 10.1472 15.0781ZM10.1472 12.7498C9.57422 12.7498 9.10803 13.2159 9.10803 13.7889C9.10803 14.3619 9.57422 14.8281 10.1472 14.8281C10.7202 14.8281 11.1864 14.3619 11.1864 13.7889C11.1864 13.2159 10.7202 12.7498 10.1472 12.7498Z" fill="#3762CC"/>
<path d="M8.29224 10.4749H6.84361C6.77655 10.4749 6.72143 10.4219 6.71874 10.3549L6.61924 7.86894C6.61793 7.83569 6.62986 7.80331 6.65249 7.77894C6.67505 7.75456 6.70649 7.74019 6.73974 7.739L9.6633 7.63688C9.72536 7.63494 9.77618 7.6755 9.78955 7.73388L10.2376 9.68881C10.2451 9.72138 10.2392 9.75556 10.2212 9.78388C10.2034 9.81206 10.1749 9.83194 10.1422 9.839L8.64324 10.1634C8.57686 10.1776 8.51118 10.1366 8.4953 10.0704L8.44343 9.85456L8.41699 10.3566C8.41355 10.4229 8.35868 10.4749 8.29224 10.4749ZM6.96374 10.2249H8.17361L8.23905 8.98144C8.2423 8.91944 8.29061 8.86925 8.35243 8.86356C8.4138 8.858 8.47093 8.89844 8.48536 8.95881L8.70986 9.89313L9.96574 9.62125L9.56899 7.89025L6.87405 7.98438L6.96374 10.2249Z" fill="#3762CC"/>
<path d="M8.36377 9.11307C8.29477 9.11307 8.23877 9.05707 8.23877 8.98807V8.43594C8.23877 8.36694 8.29477 8.31094 8.36377 8.31094C8.43277 8.31094 8.48877 8.36694 8.48877 8.43594V8.98807C8.48877 9.05707 8.43283 9.11307 8.36377 9.11307Z" fill="#3762CC"/>
<path d="M10.1538 10.6655C10.0905 10.7632 9.98597 10.8572 9.81378 10.8954L9.40584 10.9858C9.30759 11.0076 9.21278 11.0015 9.12646 10.9749C9.16365 11.1312 9.30647 11.5989 9.4269 11.7127C9.57215 11.8494 9.70965 11.7829 10.0335 11.7053C10.1705 11.6725 10.2643 11.5481 10.2619 11.4107C10.2575 11.1584 10.2207 10.9081 10.1538 10.6655Z" fill="#F9CFCF"/>
<path d="M6.69653 6.62194C6.69265 6.62194 6.68865 6.62175 6.68465 6.62138C6.6159 6.61488 6.56553 6.55388 6.57197 6.48513L6.63534 5.81506C6.64184 5.74638 6.70109 5.69588 6.77159 5.70238C6.84034 5.70888 6.89072 5.76988 6.88428 5.83863L6.8209 6.50869C6.81472 6.57344 6.76028 6.62194 6.69653 6.62194Z" fill="#3762CC"/>
<path d="M6.74404 7.98887C6.67704 7.98887 6.62154 7.93574 6.61917 7.86818L6.58211 6.80687L6.43211 6.97081C6.25373 7.16556 6.01111 7.28862 5.74867 7.31743L4.24411 7.48274C4.22673 7.50099 4.21042 7.51812 4.19517 7.53424C4.05104 7.68643 3.97173 7.77024 3.80311 7.81056C3.67173 7.84199 3.56392 7.86849 3.47467 7.89037C3.06879 7.98999 3.00623 8.00543 2.86561 7.94393C2.69554 7.86956 2.65342 7.76262 2.54104 7.47681C2.51967 7.42256 2.49517 7.36024 2.46611 7.28837C2.41998 7.17412 2.42598 7.02512 2.48192 6.89937C2.53329 6.78381 2.62254 6.69793 2.73329 6.65749C2.84761 6.61574 2.94073 6.58068 3.01829 6.55143C3.41429 6.40193 3.43792 6.39306 3.76373 6.46112C3.80179 6.46906 3.84504 6.47806 3.89479 6.48799L5.71336 5.95574L6.67767 4.61799C6.68111 4.61312 6.68454 4.60824 6.68817 4.60356C6.89917 4.33281 7.16036 4.30162 7.36761 4.29474L7.36236 4.14406C7.36086 4.10043 7.38223 4.05912 7.41879 4.03518C7.45529 4.01118 7.50179 4.00806 7.54117 4.02693C7.70711 4.10631 7.89236 4.14468 8.07786 4.13824C8.26548 4.13174 8.44286 4.08187 8.60498 3.99012C8.64304 3.96862 8.68961 3.96849 8.72767 3.98981C8.76573 4.01118 8.78998 4.05087 8.79148 4.09456L8.79673 4.24524C8.94373 4.23949 9.05804 4.24056 9.20692 4.30149L11.5195 5.16937L13.3196 5.33606L13.6286 5.15506C13.6482 5.14349 13.6713 5.13812 13.6934 5.13793C13.8082 5.13937 13.9067 5.13943 13.9917 5.13949C14.4091 5.13981 14.5654 5.13993 14.688 5.34331L14.581 5.40787L14.6905 5.34743C14.782 5.49912 14.7804 5.52931 14.7647 5.81812C14.7615 5.87487 14.7579 5.94318 14.754 6.02643C14.749 6.13349 14.7031 6.23281 14.6246 6.30599C14.5197 6.40362 14.4735 6.40818 14.0318 6.45131C13.9317 6.46106 13.8094 6.47306 13.6586 6.48856C13.6348 6.49087 13.6109 6.48662 13.5896 6.47593L13.3172 6.33893L11.2854 6.43681C11.1784 6.44162 11.0717 6.43124 10.968 6.40518L9.73479 6.09524L9.79286 7.75743C9.79523 7.82643 9.74129 7.88424 9.67229 7.88668L6.74861 7.98881C6.74698 7.98887 6.74554 7.98887 6.74404 7.98887ZM6.69642 6.37193C6.71092 6.37193 6.72554 6.37443 6.73961 6.37962C6.78729 6.39718 6.81954 6.44181 6.82136 6.49262L6.86467 7.73462L9.53848 7.64124L9.47898 5.93787C9.47767 5.89862 9.49479 5.86106 9.52536 5.83631C9.55592 5.81162 9.59636 5.80268 9.63436 5.81231L11.0289 6.16274C11.1087 6.18281 11.1911 6.19118 11.2732 6.18706L13.3379 6.08756C13.3594 6.08687 13.3808 6.09112 13.4 6.10074L13.6692 6.23618C13.804 6.22231 13.9152 6.21149 14.0073 6.20249C14.4111 6.16306 14.4135 6.16081 14.454 6.12306C14.4844 6.09474 14.5022 6.05631 14.5041 6.01481C14.508 5.93081 14.5118 5.86187 14.5149 5.80456C14.5282 5.56243 14.5282 5.56243 14.4764 5.47662L14.4739 5.47249C14.4278 5.39599 14.3917 5.38987 13.9914 5.38956C13.9144 5.38949 13.8261 5.38943 13.7249 5.38831L13.4111 5.57206C13.3885 5.58531 13.3624 5.59118 13.3364 5.58868L11.4797 5.41674C11.4686 5.41568 11.4577 5.41318 11.4472 5.40931L9.11542 4.53418C8.99936 4.48674 8.92048 4.49012 8.76342 4.49681C8.73748 4.49793 8.70992 4.49912 8.68029 4.50018C8.61092 4.50349 8.55348 4.44856 8.55104 4.37956L8.54804 4.29293C8.40123 4.34999 8.24467 4.38256 8.08642 4.38806C7.92779 4.39318 7.76923 4.37199 7.61861 4.32512L7.62167 4.41206C7.62404 4.48106 7.57011 4.53887 7.50104 4.54131C7.48017 4.54206 7.45879 4.54249 7.43698 4.54293C7.23567 4.54724 7.04554 4.55131 6.88604 4.75612L6.87586 4.77037L5.89086 6.13674C5.87461 6.15924 5.85129 6.17581 5.82454 6.18362L3.93554 6.73649C3.91642 6.74206 3.89611 6.74299 3.87661 6.73918C3.81273 6.72681 3.75886 6.71549 3.71242 6.70581C3.45804 6.65274 3.45798 6.65268 3.10636 6.78531C3.02817 6.81481 2.93423 6.85024 2.81886 6.89237C2.75929 6.91412 2.72686 6.96343 2.71023 7.00093C2.67761 7.07437 2.68086 7.15287 2.69779 7.19468C2.72717 7.26731 2.75198 7.33037 2.77354 7.38524C2.88261 7.66243 2.89517 7.68399 2.96567 7.71481C3.02398 7.74018 3.02904 7.74224 3.41492 7.64749C3.50461 7.62543 3.61286 7.59893 3.74479 7.56731C3.83761 7.54518 3.87404 7.50956 4.01354 7.36231C4.03804 7.33643 4.06498 7.30793 4.09529 7.27656C4.11554 7.25556 4.14261 7.24231 4.17161 7.23906L5.72136 7.06881C5.92342 7.04668 6.11036 6.95187 6.24767 6.80187L6.60411 6.41243C6.62836 6.38618 6.66198 6.37193 6.69642 6.37193Z" fill="#3762CC"/>
<path d="M8.16388 15.0781H6.97189C6.83226 15.0781 6.71857 14.9645 6.71857 14.8248C6.71857 14.7923 6.71795 14.7667 6.71738 14.7454C6.71401 14.6071 6.7222 14.5881 6.8222 14.3552C6.84863 14.2936 6.88226 14.2153 6.92495 14.1134L6.71876 10.3568C6.71689 10.3224 6.7292 10.2889 6.75282 10.264C6.77638 10.2391 6.8092 10.2249 6.84357 10.2249H8.2922C8.32607 10.2249 8.35851 10.2387 8.38207 10.263C8.40557 10.2873 8.41826 10.3201 8.4172 10.354L8.29413 14.1219C8.31751 14.2157 8.33639 14.2902 8.35164 14.3504C8.41726 14.6093 8.41982 14.6193 8.41795 14.7477C8.41763 14.7686 8.41726 14.7934 8.41726 14.8248C8.4172 14.9645 8.30351 15.0781 8.16388 15.0781ZM6.97557 10.4749L7.17614 14.1284C7.1772 14.1473 7.17395 14.1661 7.1667 14.1835C7.11826 14.2994 7.08082 14.3865 7.05195 14.4538C6.96532 14.6556 6.96532 14.6556 6.96732 14.7393C6.96788 14.7623 6.96857 14.7899 6.96857 14.8248L8.16388 14.8281C8.1672 14.792 8.16757 14.7659 8.16789 14.7441C8.16926 14.6488 8.16926 14.6488 8.10926 14.4118C8.09301 14.3479 8.0727 14.2676 8.04732 14.1654C8.04451 14.1543 8.04332 14.1428 8.04363 14.1312L8.16301 10.4749H6.97557Z" fill="#3762CC"/>
<path d="M9.28553 11.124C9.15791 11.124 9.03254 11.0876 8.92204 11.017C8.7626 10.915 8.64835 10.7518 8.60841 10.569C8.60828 10.5684 8.60816 10.5678 8.60804 10.5673C8.60635 10.5589 8.56085 10.3435 8.49529 10.0704C8.48741 10.0377 8.4931 10.0032 8.51097 9.9747C8.52885 9.94626 8.55747 9.9262 8.59041 9.91901L10.0893 9.59458C10.1562 9.58045 10.2223 9.62208 10.2376 9.68889L10.2871 9.90508L10.319 10.0432C10.3612 10.225 10.3744 10.2816 10.3726 10.3638C10.3785 10.448 10.3178 10.9117 9.84072 11.0175L9.43279 11.1079C9.38391 11.1186 9.3346 11.124 9.28553 11.124ZM8.85272 10.5156C8.87854 10.6341 8.95291 10.74 9.05679 10.8063C9.12504 10.8499 9.23622 10.8951 9.37872 10.8638L9.78672 10.7733C10.0678 10.711 10.1147 10.4576 10.122 10.3931C10.1217 10.3881 10.1216 10.3831 10.1219 10.378C10.1219 10.3779 10.1219 10.3778 10.1219 10.3776C10.1252 10.3161 10.121 10.2959 10.0755 10.0997L10.0215 9.86508L8.76822 10.1364C8.81697 10.3401 8.84241 10.451 8.85035 10.5162L8.85272 10.5156Z" fill="#3762CC"/>
<path d="M9.61764 11.9164C9.51939 11.9164 9.4302 11.8874 9.3412 11.8036C9.16351 11.6358 9.00639 11.01 9.00482 11.0038C8.99451 10.9601 9.00832 10.9143 9.04101 10.8836C9.0737 10.8531 9.12045 10.8423 9.1632 10.8554C9.23357 10.8771 9.30601 10.8798 9.3787 10.8638L9.78664 10.7733C9.90164 10.7478 9.98982 10.6887 10.0488 10.5976C10.0755 10.5563 10.124 10.5346 10.1726 10.5419C10.2213 10.5494 10.2611 10.5848 10.2741 10.6322C10.3443 10.8864 10.3822 11.1476 10.3868 11.4084C10.3903 11.605 10.2539 11.7809 10.0625 11.8268C10.0141 11.8384 9.96995 11.8498 9.92926 11.8602C9.81214 11.8903 9.71076 11.9164 9.61764 11.9164ZM9.29739 11.124C9.36107 11.3305 9.45326 11.5656 9.5127 11.6218C9.58014 11.6853 9.62801 11.6796 9.8672 11.6181C9.90901 11.6073 9.95445 11.5957 10.0043 11.5837C10.0825 11.5649 10.1383 11.4931 10.1368 11.4129C10.1339 11.2459 10.1161 11.0787 10.0838 10.9136C10.0129 10.9623 9.93126 10.9973 9.84076 11.0174L9.43276 11.1078C9.38757 11.1179 9.34245 11.1233 9.29739 11.124Z" fill="#3762CC"/>
</g>
<defs>
<clipPath id="clip0_89_431">
<rect width="16" height="16" fill="white"/>
</clipPath>
</defs>
</svg>
