<svg width="10" height="10" viewBox="0 0 10 10" fill="none" xmlns="http://www.w3.org/2000/svg">
<g clip-path="url(#clip0_38_17)">
<path d="M4.99999 0.833336C2.70249 0.833336 0.833328 2.7025 0.833328 5C0.833328 7.2975 2.70249 9.16667 4.99999 9.16667C7.29749 9.16667 9.16666 7.2975 9.16666 5C9.16666 2.7025 7.29749 0.833336 4.99999 0.833336ZM4.99999 8.33334C3.16208 8.33334 1.66666 6.83792 1.66666 5C1.66666 3.16209 3.16208 1.66667 4.99999 1.66667C6.83791 1.66667 8.33333 3.16209 8.33333 5C8.33333 6.83792 6.83791 8.33334 4.99999 8.33334Z" fill="black"/>
<path d="M5.41666 2.91666H4.58333V5.41666H7.08333V4.58333H5.41666V2.91666Z" fill="black"/>
</g>
<defs>
<clipPath id="clip0_38_17">
<rect width="10" height="10" fill="white"/>
</clipPath>
</defs>
</svg>
